<svg id="Camada_1" data-name="Camada 1" xmlns="http://www.w3.org/2000/svg" viewBox="0 0 808.9 784.3"><title>ID_Care</title><path d="M404.47,314.74l6.4-43.5c18.1-100.7,71.8-77.2,151.3-108.5,26.4-10.4,94.9-34.2,99.9,16.9,4.2,42.6-1.8,89.8-2.5,132.2-1,57.2,1.7,126.5-4.9,182.1-1.2,9.9-5.1,18.1-11.9,23.6-12.6,10.2-58.1,16.5-76.9,23-30.2,10.4-62.1,27-89.5,45.7-16.2,11.1-45.9,42.2-58.8,48.2a29.54,29.54,0,0,1-25,0c-11.8-5.5-38.5-34.1-52.5-44.2-31.7-22.9-69.1-42.1-104.9-53.3-30.1-9.4-74.2-3.7-82-49-3.5-20.4-4.4-57-5.1-79-2.1-66.2-4.9-165.3,0-229.5,3.6-47.1,52.1-31.1,79-23.4,99.3,28.4,172,31.5,177.4,158.5Z" style="fill:#40468f"/></svg>