<svg id="Camada_1" data-name="Camada 1" xmlns="http://www.w3.org/2000/svg" viewBox="0 0 808.9 784.3"><title>ID_Care</title><path d="M483.39,169.42c32.1,33.7,6.4,111.9,49.7,118.6,35.2,5.4,70.4-7.1,102,20.2s30.4,101.5,18.6,138.2c-12.4,38.6-43.8,47.5-80.9,51.2-17.3,1.7-41.4-4-56.2,8.6-22.3,19,1.1,89-41.4,118.2-31.1,21.4-105.8,21.2-137.7,1.4-47.9-29.6-22.2-97.8-43.8-118.3-15-14.3-46-8.4-64.8-10-66.1-5.5-82.9-53.8-81.2-113.5,1.4-47.3,16-83.5,66.4-93.2,22-4.2,65.3,2.9,79.7-12.5,17-18.2,4.1-75.2,28.5-106.1,30.1-38,128.6-37,161.2-2.9Z" style="fill:#58af92"/></svg>