<svg id="Camada_1" data-name="Camada 1" xmlns="http://www.w3.org/2000/svg" viewBox="0 0 808.9 784.3"><title>ID_Care</title><path d="M299.61,335.1l6-1.6c39-2.7,81.2-7.4,118.9-17.7,26.6-7.3,36.3-16.4,58.9-29.3,13.3-7.6,28.1-13.6,41-21.8,25.8-16.2,53.4-47.7,85.5-49.6,29.7-1.7,10.3,23-1.6,32.5-11.1,8.9-38.6,23.2-44.7,34.7-8.6,16.1,16,9.8,23.9,8,15.4-3.6,33.6-9.2,48.7-14.1,20.4-6.6,61.6-26.8,81-24.6,10.7,1.2,7.4,12.9,3.4,19.3-9.8,16-56.5,39.9-74.5,48.6L631,326.2c37.8-4,74.5-14.6,111.7-22.1,9.1-.8,18.6.1,15.8,11.9-1.9,8.1-22.9,18.5-30.4,22.1-26,12.4-55.5,19.8-83.7,25.5.4,1.5,1.1,1.4,2.4,1.3,3.9-.3,8.9-1.7,13.1-2.1,28-2.6,57.1-10.5,84.2-11.9,8.2-.4,33.3-.5,24.9,13.8-5.5,9.3-34.4,17.2-45,20.1a647.7,647.7,0,0,1-74,15.3l8.3,1.6c8.8-.8,17.5,1.2,26.2.8,15-.6,45.6-8,58.3-3.6a51.22,51.22,0,0,1,5.4,2.9c1.5,2.6-1.1,8.4-3.1,10.5-6.9,7.3-39.9,16.2-50.8,18.8-39,9.3-88.5,15.7-128.3,15.9-32.9.1-65.6-2.2-98.6-1.6-25.4.5-51.6,4.5-76.8-1-57.3-12.4-74.5-59.5-91.2-109.4Z" style="fill:#58af92"/><path d="M209,338.3l2.5,1.1,10.3,16.6c9.8,14.8,19.9,28.1,28.1,3.5,2.3-6.8,3.3-14,4.2-21l1.7-.9c1.9-17.5-6-57.5,10.8-67.4,11.2-6.5,16.1,5.2,18.5,13.8,5,17.8,8.4,33.3,14.4,51.2l2.5,2.5c19.3,61.7,44.1,106.2,115.4,108.2,45-2,90.6-2.3,136.3-.3,46.5,1,92.6-5.7,137.9-14.7l2.6.5c-16.8,43.4-47.6,82.4-89,104.5-87.9,46.8-165.5,34.9-260.1,20.9-74.7-11-126.9-25.6-192.5-63.3-47.2-27.1-81.8-47.5-101.8-100.8s-14.2-37,3.2-35c6.21.7,12.5,8.5,16,13.4,9.5,13.1,15.6,25.9,26.71,38.8,1.2.4,1.7-.4,1.6-2.4-15-25.5-27.9-52.4-39.9-79.7-4.2-9.5-11.1-46.3,8.1-39.8,9.2,3.1,20.4,20.8,25.8,29,13.2,20.2,24.1,42.1,37.79,61.9-2.29-7.9-6.5-15.2-9.29-22.8-9-24-25-76.3-22.4-100.7,1.2-11.5,11.5-13.1,18.7-4.4,9.2,11.2,19.5,44.8,26.7,59.9,3.3,7,7.9,16.6,12,23s2.5,4.2,4.6,5.3c-2.4-10.6-6.7-20.4-9.1-31-3.3-14.2-9.3-46.4-1.9-59.1,6.5-10.9,14.1-3.3,18.6,4.2,16,26.6,24,57.1,40.9,85Z" style="fill:#8d7fad"/></svg>