<svg id="Camada_1" data-name="Camada 1" xmlns="http://www.w3.org/2000/svg" viewBox="0 0 808.9 784.3"><title>ID_Care</title><path d="M53.57,700.9H48.08a8.34,8.34,0,0,0-1.17-3.06,7.29,7.29,0,0,0-2.17-2.26A11.74,11.74,0,0,0,42,694.14a9.74,9.74,0,0,0-3.24-.45,10.62,10.62,0,0,0-5.59,1.53,10.35,10.35,0,0,0-3.87,4.6,19.66,19.66,0,0,0,0,14.77,11.47,11.47,0,0,0,3.87,4.6,10.62,10.62,0,0,0,5.59,1.53,8.18,8.18,0,0,0,3.24-.45,10,10,0,0,0,2.79-1.35,10.33,10.33,0,0,0,2.17-2.25,8.39,8.39,0,0,0,1.17-3.07h5.49a14.23,14.23,0,0,1-1.71,4.87,11.89,11.89,0,0,1-3.24,3.78,15.62,15.62,0,0,1-4.51,2.52,15.4,15.4,0,0,1-5.49.91,15.36,15.36,0,0,1-8.38-2.26A14.79,14.79,0,0,1,24.47,717a24.28,24.28,0,0,1,.09-19.82,15.08,15.08,0,0,1,5.77-6.31,16.17,16.17,0,0,1,8.38-2.25,13,13,0,0,1,5.4.81,16.53,16.53,0,0,1,4.51,2.34A14.8,14.8,0,0,1,52,695.58a15.92,15.92,0,0,1,1.8,5.14Z" style="fill:#212121"/><path d="M63.75,689.28v35.86H58.44V689.28Z" style="fill:#212121"/><path d="M69.61,725.14V698.2h5.32v26.94Zm.45-30.46,4.15-8.11h5.58l-5.49,8.11Z" style="fill:#212121"/><path d="M86,709.19v15.95H80.69V698.2h5v4.41h.36a7.33,7.33,0,0,1,3-3.42,9.74,9.74,0,0,1,5.05-1.26A9.26,9.26,0,0,1,99,699.1a8,8,0,0,1,3.24,3.42,12.67,12.67,0,0,1,1.18,5.59v17.12H98.08V708.74a6.59,6.59,0,0,0-1.53-4.6,5.5,5.5,0,0,0-4.24-1.62,5,5,0,0,0-3.24.81,5.16,5.16,0,0,0-2.25,2.34,7.78,7.78,0,0,0-.81,3.7Z" style="fill:#212121"/><path d="M111.87,694.05a3.19,3.19,0,0,1-2.35-.9,3,3,0,0,1-1-2.16,3.23,3.23,0,0,1,3.34-3.15,3.19,3.19,0,0,1,2.34.9,3.07,3.07,0,0,1,1,2.25,2.74,2.74,0,0,1-1,2.16A3.19,3.19,0,0,1,111.87,694.05Zm-2.71,31.09V698.2h5.32v26.94Z" style="fill:#212121"/><path d="M131.78,725.68a12.51,12.51,0,0,1-6.76-1.81,11.15,11.15,0,0,1-4.33-5,17.75,17.75,0,0,1,0-14.42,11.88,11.88,0,0,1,11.09-6.75,10.81,10.81,0,0,1,5.49,1.17,9.67,9.67,0,0,1,5.68,7.93h-5.14a6,6,0,0,0-1.89-3.25,5.79,5.79,0,0,0-4-1.35,5.85,5.85,0,0,0-3.88,1.17,7.84,7.84,0,0,0-2.61,3.25,12.15,12.15,0,0,0-.9,5,12.39,12.39,0,0,0,.9,5A8,8,0,0,0,127.9,720a6.37,6.37,0,0,0,3.88,1.17,5.28,5.28,0,0,0,2.7-.54,5.2,5.2,0,0,0,2.07-1.62,5.92,5.92,0,0,0,1.17-2.52h5.14a9.52,9.52,0,0,1-1.71,4.68,11.12,11.12,0,0,1-3.79,3.24,12,12,0,0,1-5.58,1.18Z" style="fill:#212121"/><path d="M155.2,725.77a11.31,11.31,0,0,1-4.68-1,7.71,7.71,0,0,1-3.34-2.79,7.79,7.79,0,0,1-1.17-4.5,6.38,6.38,0,0,1,.9-3.79,6.48,6.48,0,0,1,2.34-2.34,13.64,13.64,0,0,1,3.34-1.26,27.6,27.6,0,0,1,3.78-.63c1.62-.18,3-.36,4-.45a6.14,6.14,0,0,0,2.25-.63,1.48,1.48,0,0,0,.72-1.35h0a5.09,5.09,0,0,0-1.26-3.7,5.56,5.56,0,0,0-3.88-1.26,6.92,6.92,0,0,0-4.23,1.17,6.2,6.2,0,0,0-2.07,2.61l-5-1.08a9.46,9.46,0,0,1,2.62-4,12.25,12.25,0,0,1,4-2.25,15.91,15.91,0,0,1,4.68-.72,12.48,12.48,0,0,1,3.43.36,11.31,11.31,0,0,1,3.42,1.35,6.79,6.79,0,0,1,2.61,2.88,9.4,9.4,0,0,1,1,4.78v17.84h-5.14v-3.7h-.18a6.19,6.19,0,0,1-1.53,2,9.14,9.14,0,0,1-2.62,1.62,9.78,9.78,0,0,1-3.87.64Zm1.17-4.24a7.39,7.39,0,0,0,3.79-.9,5.94,5.94,0,0,0,3.15-5.23v-3.51a2.93,2.93,0,0,1-1.08.54,10.62,10.62,0,0,1-1.8.36l-2,.27a12.65,12.65,0,0,1-1.62.18,12.69,12.69,0,0,0-2.79.63,4.43,4.43,0,0,0-2,1.26,3.13,3.13,0,0,0-.72,2.26,3.92,3.92,0,0,0,1.44,3,6.61,6.61,0,0,0,3.69,1Z" style="fill:#212121"/><path d="M189.8,725.14H184l13-35.86h6.3l13,35.86h-5.77l-10.18-29.38h-.27L189.8,725.14Zm1-14.06h18.83v4.6H190.79Z" style="fill:#212121"/><path d="M219.89,725.14V698.2h5.05v4.41h.36a7.62,7.62,0,0,1,2.79-3.51,9,9,0,0,1,9.19,0,6.66,6.66,0,0,1,2.7,3.51h.27a7.52,7.52,0,0,1,3.06-3.42,9.79,9.79,0,0,1,5.05-1.26,9,9,0,0,1,6,2.25c1.53,1.53,2.34,3.87,2.34,6.94v18h-5.32V707.57a4.9,4.9,0,0,0-1.53-4,5.48,5.48,0,0,0-3.6-1.26,5.12,5.12,0,0,0-5.41,5.59v17.12h-5.22V707.12a4.76,4.76,0,0,0-1.35-3.52,4.86,4.86,0,0,0-3.61-1.35,4.13,4.13,0,0,0-2.79.81,6.8,6.8,0,0,0-2.07,2.16,6.25,6.25,0,0,0-.81,3.25v16.58h-5.32Z" style="fill:#212121"/><path d="M262.59,735.23v-37h5.14v4.32h.45a13,13,0,0,1,1.35-2,6.68,6.68,0,0,1,2.44-1.89,8.51,8.51,0,0,1,4-.81,12,12,0,0,1,5.86,1.62,11.18,11.18,0,0,1,4.05,4.77,20.15,20.15,0,0,1,0,15,11.18,11.18,0,0,1-4.05,4.77,10.85,10.85,0,0,1-5.86,1.72,7.59,7.59,0,0,1-4-.81,6.8,6.8,0,0,1-2.44-1.9,7.75,7.75,0,0,1-1.35-2h-.36v14.33h-5.31Zm5.14-23.52a14,14,0,0,0,.81,5A7.16,7.16,0,0,0,271,720a6.23,6.23,0,0,0,3.88,1.17,6.5,6.5,0,0,0,4-1.26,7.43,7.43,0,0,0,2.43-3.42,13.63,13.63,0,0,0,.82-4.87,13,13,0,0,0-.82-4.77,7.14,7.14,0,0,0-2.43-3.34,6.5,6.5,0,0,0-4-1.26,6.21,6.21,0,0,0-3.88,1.17,7.34,7.34,0,0,0-2.43,3.25,13.76,13.76,0,0,0-.81,4.86Z" style="fill:#212121"/><path d="M297.28,689.28v35.86H292V689.28Z" style="fill:#212121"/><path d="M305.84,694.05a3.19,3.19,0,0,1-2.34-.9,3,3,0,0,1-1-2.16,3.22,3.22,0,0,1,1-2.25,3.49,3.49,0,0,1,4.68,0,3.07,3.07,0,0,1,1,2.25,2.74,2.74,0,0,1-1,2.16A3.19,3.19,0,0,1,305.84,694.05Zm-2.7,31.09V698.2h5.31v26.94Z" style="fill:#212121"/><path d="M322.15,725.77a11.36,11.36,0,0,1-4.69-1,7.38,7.38,0,0,1-4.5-7.29,6.38,6.38,0,0,1,.9-3.79,6.48,6.48,0,0,1,2.34-2.34,13.34,13.34,0,0,1,3.34-1.26,27.6,27.6,0,0,1,3.78-.63c1.62-.18,3-.36,4-.45a6.2,6.2,0,0,0,2.26-.63,1.48,1.48,0,0,0,.72-1.35h0a5.09,5.09,0,0,0-1.26-3.7,5.6,5.6,0,0,0-3.88-1.26,6.92,6.92,0,0,0-4.23,1.17,6.23,6.23,0,0,0-2.08,2.61l-4.95-1.08a9.54,9.54,0,0,1,2.61-4,12.2,12.2,0,0,1,4-2.25,15.91,15.91,0,0,1,4.68-.72,12.45,12.45,0,0,1,3.42.36,11.27,11.27,0,0,1,3.43,1.35,6.79,6.79,0,0,1,2.61,2.88,9.4,9.4,0,0,1,1,4.78v17.84h-5.13v-3.7h-.18a6.09,6.09,0,0,1-1.54,2,9.22,9.22,0,0,1-2.61,1.62,9.78,9.78,0,0,1-3.87.64Zm1.17-4.24a7.35,7.35,0,0,0,3.78-.9,5.93,5.93,0,0,0,3.16-5.23v-3.51a2.93,2.93,0,0,1-1.08.54,10.94,10.94,0,0,1-1.81.36l-2,.27a12.65,12.65,0,0,1-1.62.18,12.69,12.69,0,0,0-2.79.63,4.46,4.46,0,0,0-2,1.26,3.13,3.13,0,0,0-.72,2.26,3.89,3.89,0,0,0,1.45,3,6.61,6.61,0,0,0,3.69,1Z" style="fill:#212121"/><path d="M351.52,725.68a10.11,10.11,0,0,1-5.86-1.72,11.18,11.18,0,0,1-4.05-4.77,20.15,20.15,0,0,1,0-15,11.18,11.18,0,0,1,4.05-4.77,10.83,10.83,0,0,1,5.86-1.62,7.38,7.38,0,0,1,4.05.81,8.81,8.81,0,0,1,2.44,1.89,19.49,19.49,0,0,1,1.35,2h.36V689.19H365V725H359.9V720.9h-.45c-.36.54-.81,1.26-1.35,2a8.81,8.81,0,0,1-2.44,1.89,8.38,8.38,0,0,1-4.05.82Zm1.17-4.42a6.18,6.18,0,0,0,3.87-1.17,7.11,7.11,0,0,0,2.44-3.33,14,14,0,0,0,.81-5,13.08,13.08,0,0,0-.81-4.86,6.82,6.82,0,0,0-2.35-3.25,6.18,6.18,0,0,0-3.87-1.17,6.5,6.5,0,0,0-4,1.26,7.09,7.09,0,0,0-2.44,3.34,13.26,13.26,0,0,0-.81,4.77,13.86,13.86,0,0,0,.81,4.87,7.38,7.38,0,0,0,2.44,3.42,6.31,6.31,0,0,0,4,1.26Z" style="fill:#212121"/><path d="M379.09,725.77a11.36,11.36,0,0,1-4.69-1,7.38,7.38,0,0,1-4.5-7.29,6.38,6.38,0,0,1,.9-3.79,6.48,6.48,0,0,1,2.34-2.34,13.34,13.34,0,0,1,3.34-1.26,27.6,27.6,0,0,1,3.78-.63c1.62-.18,3-.36,4-.45a6.14,6.14,0,0,0,2.26-.63,1.48,1.48,0,0,0,.72-1.35h0a5.09,5.09,0,0,0-1.26-3.7,5.6,5.6,0,0,0-3.88-1.26,6.92,6.92,0,0,0-4.23,1.17,6.2,6.2,0,0,0-2.07,2.61l-5-1.08a9.54,9.54,0,0,1,2.61-4,12.3,12.3,0,0,1,4-2.25,15.91,15.91,0,0,1,4.68-.72,12.57,12.57,0,0,1,3.43.36,11.31,11.31,0,0,1,3.42,1.35,6.79,6.79,0,0,1,2.61,2.88,9.4,9.4,0,0,1,1,4.78v17.84h-5.13v-3.7h-.18a6.09,6.09,0,0,1-1.54,2,9.22,9.22,0,0,1-2.61,1.62,9.78,9.78,0,0,1-3.87.64Zm1.17-4.24a7.35,7.35,0,0,0,3.78-.9,5.93,5.93,0,0,0,3.16-5.23v-3.51a2.93,2.93,0,0,1-1.08.54,10.74,10.74,0,0,1-1.81.36l-2,.27a12.65,12.65,0,0,1-1.62.18,12.69,12.69,0,0,0-2.79.63,4.52,4.52,0,0,0-2,1.26,3.13,3.13,0,0,0-.72,2.26,3.89,3.89,0,0,0,1.45,3,6.61,6.61,0,0,0,3.69,1Z" style="fill:#212121"/><path d="M410.62,725.14V689.28h12.89a15,15,0,0,1,7,1.44,9.33,9.33,0,0,1,4.15,4,12.24,12.24,0,0,1,1.35,5.86,11.67,11.67,0,0,1-1.35,5.77,9.62,9.62,0,0,1-4.15,3.87,16,16,0,0,1-7,1.35h-9.73v-4.68h9.27a11.36,11.36,0,0,0,4.33-.72,5.81,5.81,0,0,0,2.43-2.17,6.87,6.87,0,0,0,.81-3.42,7.22,7.22,0,0,0-.81-3.51,5.34,5.34,0,0,0-2.43-2.26A10.17,10.17,0,0,0,423,694h-6.84v31.27h-5.5ZM428.46,709l8.92,16.22h-6.22L422.42,709Z" style="fill:#212121"/><path d="M452.43,725.68a13.12,13.12,0,0,1-6.94-1.72,10.6,10.6,0,0,1-4.42-4.86,17.06,17.06,0,0,1-1.53-7.3,16.81,16.81,0,0,1,1.53-7.3,11.86,11.86,0,0,1,4.42-5,12.19,12.19,0,0,1,6.58-1.8,10.59,10.59,0,0,1,4.41.72,10.17,10.17,0,0,1,3.87,2.34,10.38,10.38,0,0,1,2.71,4.14,18.07,18.07,0,0,1,1,6.22v1.89H442.52v-4h16.39a8.3,8.3,0,0,0-.81-3.7,6.32,6.32,0,0,0-2.34-2.52,6.69,6.69,0,0,0-3.6-.9,7.18,7.18,0,0,0-3.88,1.08,6.84,6.84,0,0,0-2.52,2.79,9.06,9.06,0,0,0-.9,3.79v3.06a10.21,10.21,0,0,0,1,4.6,6.45,6.45,0,0,0,2.7,2.88,8.44,8.44,0,0,0,4.06,1,6.35,6.35,0,0,0,2.7-.45,6.5,6.5,0,0,0,2.16-1.26,4.45,4.45,0,0,0,1.35-2.16l5,.9a8.75,8.75,0,0,1-2.16,3.87,9.88,9.88,0,0,1-3.88,2.53,14,14,0,0,1-5.31.9Z" style="fill:#212121"/><path d="M489,704.77l-4.77.81a6.22,6.22,0,0,0-.9-1.71,5.18,5.18,0,0,0-1.71-1.35,6,6,0,0,0-2.71-.54,8.46,8.46,0,0,0-3.78,1,3,3,0,0,0-1.53,2.52,2.62,2.62,0,0,0,1,2.17,7.91,7.91,0,0,0,3.24,1.35l4.33,1a11.53,11.53,0,0,1,5.58,2.61,6,6,0,0,1,1.81,4.69,6.08,6.08,0,0,1-1.45,4.32,9.3,9.3,0,0,1-3.87,3,14.14,14.14,0,0,1-5.77,1.09,15.77,15.77,0,0,1-7.47-1.9,8.2,8.2,0,0,1-3.52-5.49l5.14-.81a4.76,4.76,0,0,0,2,3,7,7,0,0,0,3.87,1,7.27,7.27,0,0,0,4.15-1.08,3.25,3.25,0,0,0,1.53-2.61,3,3,0,0,0-.9-2.16,6.49,6.49,0,0,0-2.88-1.27l-4.6-1a10.48,10.48,0,0,1-5.58-2.7,6.64,6.64,0,0,1-1.81-4.78,5.84,5.84,0,0,1,1.36-4.14,8.94,8.94,0,0,1,3.69-2.79,14.79,14.79,0,0,1,5.4-1,11.33,11.33,0,0,1,6.94,1.89,8.83,8.83,0,0,1,3.34,5Z" style="fill:#212121"/><path d="M514.41,704.77l-4.77.81a6.22,6.22,0,0,0-.9-1.71,5.22,5.22,0,0,0-1.72-1.35,6,6,0,0,0-2.7-.54,8.46,8.46,0,0,0-3.78,1,3,3,0,0,0-1.53,2.52,2.62,2.62,0,0,0,1,2.17,7.91,7.91,0,0,0,3.24,1.35l4.32,1a11.53,11.53,0,0,1,5.59,2.61,6,6,0,0,1,1.8,4.69,6.12,6.12,0,0,1-1.44,4.32,9.3,9.3,0,0,1-3.87,3,14.18,14.18,0,0,1-5.77,1.09,15.8,15.8,0,0,1-7.48-1.9,8.22,8.22,0,0,1-3.51-5.49l5.13-.81a4.81,4.81,0,0,0,2,3,7,7,0,0,0,3.87,1,7.31,7.31,0,0,0,4.15-1.08,3.25,3.25,0,0,0,1.53-2.61,3,3,0,0,0-.9-2.16,6.53,6.53,0,0,0-2.89-1.27l-4.59-1a10.51,10.51,0,0,1-5.59-2.7,6.68,6.68,0,0,1-1.8-4.78,5.88,5.88,0,0,1,1.35-4.14,8.91,8.91,0,0,1,3.7-2.79,14.79,14.79,0,0,1,5.4-1,11.35,11.35,0,0,1,6.94,1.89,8.82,8.82,0,0,1,3.33,5Z" style="fill:#212121"/><path d="M522.16,694.05a3.19,3.19,0,0,1-2.34-.9,3,3,0,0,1-1-2.16,3.22,3.22,0,0,1,1-2.25,3.49,3.49,0,0,1,4.68,0,3.07,3.07,0,0,1,1,2.25,2.74,2.74,0,0,1-1,2.16A3.19,3.19,0,0,1,522.16,694.05Zm-2.7,31.09V698.2h5.31v26.94Z" style="fill:#212121"/><path d="M542,735.77a17.48,17.48,0,0,1-5.59-.81,10.09,10.09,0,0,1-5.94-5.23l4.5-1.89c.36.45.72,1,1.26,1.62a6.63,6.63,0,0,0,2.17,1.44,8.07,8.07,0,0,0,3.6.63,8.88,8.88,0,0,0,5-1.44,5.29,5.29,0,0,0,2-4.59v-5.32h-.36q-.54.81-1.35,1.89a7.18,7.18,0,0,1-2.44,1.8,8.51,8.51,0,0,1-4,.81,12.58,12.58,0,0,1-5.77-1.53,10.18,10.18,0,0,1-4.05-4.41,15.82,15.82,0,0,1-1.53-7.21,17,17,0,0,1,1.44-7.39,10.59,10.59,0,0,1,9.91-6.3,7.38,7.38,0,0,1,4,.81,8.81,8.81,0,0,1,2.44,1.89,19.49,19.49,0,0,1,1.35,2h.36V698.2h5.13v27.48a9.59,9.59,0,0,1-1.62,5.67A9.1,9.1,0,0,1,548,734.6a16.68,16.68,0,0,1-6.22,1.08Zm-.09-15.32a6.75,6.75,0,0,0,3.87-1.08,6.35,6.35,0,0,0,2.44-3.06,14.48,14.48,0,0,0,0-9.55,7.84,7.84,0,0,0-2.35-3.25,6.18,6.18,0,0,0-3.87-1.17,6.5,6.5,0,0,0-4,1.26,7.15,7.15,0,0,0-2.44,3.34,13.11,13.11,0,0,0-.81,4.68,12.85,12.85,0,0,0,.81,4.69,7.13,7.13,0,0,0,2.44,3.15,6.85,6.85,0,0,0,4,1.08Z" style="fill:#212121"/><path d="M565.32,709.19v15.95H560V698.2h5v4.41h.36a7.33,7.33,0,0,1,3-3.42,9.73,9.73,0,0,1,5-1.26,9.28,9.28,0,0,1,4.87,1.17,8,8,0,0,1,3.24,3.42,12.82,12.82,0,0,1,1.17,5.59v17.12h-5.31V708.74a6.59,6.59,0,0,0-1.53-4.6,5.52,5.52,0,0,0-4.24-1.62,5,5,0,0,0-3.24.81,5.16,5.16,0,0,0-2.25,2.34,7.78,7.78,0,0,0-.81,3.7Z" style="fill:#212121"/><path d="M591.17,694.05a3.19,3.19,0,0,1-2.34-.9,3,3,0,0,1-1-2.16,3.22,3.22,0,0,1,1-2.25,3.19,3.19,0,0,1,2.34-.9,3.23,3.23,0,0,1,2.35.9,3.07,3.07,0,0,1,1,2.25,2.74,2.74,0,0,1-1,2.16A3.23,3.23,0,0,1,591.17,694.05Zm-2.7,31.09V698.2h5.32v26.94Z" style="fill:#212121"/><path d="M612.53,698.2v4.23H597.21V698.2Zm-11.09,26.94v-30a7.69,7.69,0,0,1,1.09-4.23,6.79,6.79,0,0,1,3-2.52,9.74,9.74,0,0,1,4-.81,7.1,7.1,0,0,1,2.71.27l1.71.45-1.26,4.23a8.77,8.77,0,0,1-1-.27,6.26,6.26,0,0,0-1.44-.18,3.4,3.4,0,0,0-2.7,1,4,4,0,0,0-.81,2.7v29.38h-5.23Z" style="fill:#212121"/><path d="M619.37,694.05a3.19,3.19,0,0,1-2.34-.9,3,3,0,0,1-1-2.16,3.22,3.22,0,0,1,1-2.25,3.19,3.19,0,0,1,2.34-.9,3.23,3.23,0,0,1,2.35.9,3.07,3.07,0,0,1,1,2.25,2.74,2.74,0,0,1-1,2.16A3.23,3.23,0,0,1,619.37,694.05Zm-2.61,31.09V698.2h5.32v26.94Z" style="fill:#212121"/><path d="M639.28,725.68a12.5,12.5,0,0,1-6.75-1.81,11,11,0,0,1-4.33-5,17.75,17.75,0,0,1,0-14.42,12.28,12.28,0,0,1,4.42-5,12.49,12.49,0,0,1,6.66-1.8,10.83,10.83,0,0,1,5.5,1.17,9.53,9.53,0,0,1,3.87,3.15,9.63,9.63,0,0,1,1.81,4.78h-5.14a6,6,0,0,0-1.89-3.25,6.88,6.88,0,0,0-7.93-.18,7.84,7.84,0,0,0-2.61,3.25,12.15,12.15,0,0,0-.9,5,12.39,12.39,0,0,0,.9,5,8,8,0,0,0,2.52,3.33,6.36,6.36,0,0,0,3.87,1.17,5.32,5.32,0,0,0,2.71-.54,5.2,5.2,0,0,0,2.07-1.62,5.92,5.92,0,0,0,1.17-2.52h5.14a9.63,9.63,0,0,1-1.72,4.68,11,11,0,0,1-3.78,3.24,12,12,0,0,1-5.59,1.18Z" style="fill:#212121"/><path d="M662.8,725.77a11.39,11.39,0,0,1-4.69-1,7.38,7.38,0,0,1-4.5-7.29,6.38,6.38,0,0,1,.9-3.79,6.48,6.48,0,0,1,2.34-2.34,13.34,13.34,0,0,1,3.34-1.26,27.6,27.6,0,0,1,3.78-.63c1.62-.18,3-.36,4-.45a6.14,6.14,0,0,0,2.26-.63,1.48,1.48,0,0,0,.72-1.35h0a5.09,5.09,0,0,0-1.26-3.7,5.58,5.58,0,0,0-3.88-1.26,6.92,6.92,0,0,0-4.23,1.17,6.2,6.2,0,0,0-2.07,2.61l-5-1.08a9.54,9.54,0,0,1,2.61-4,12.3,12.3,0,0,1,4-2.25,15.91,15.91,0,0,1,4.68-.72,12.57,12.57,0,0,1,3.43.36,11.31,11.31,0,0,1,3.42,1.35,6.79,6.79,0,0,1,2.61,2.88,9.4,9.4,0,0,1,1,4.78v17.84h-5.13v-3.7h-.18a6.19,6.19,0,0,1-1.53,2,9.42,9.42,0,0,1-2.62,1.62,9.78,9.78,0,0,1-3.87.64Zm1.08-4.24a7.35,7.35,0,0,0,3.78-.9,5.93,5.93,0,0,0,3.16-5.23v-3.51a2.93,2.93,0,0,1-1.08.54,10.74,10.74,0,0,1-1.81.36l-2,.27a12.65,12.65,0,0,1-1.62.18,12.69,12.69,0,0,0-2.79.63,4.52,4.52,0,0,0-2,1.26,3.13,3.13,0,0,0-.72,2.26,3.89,3.89,0,0,0,1.45,3,6.61,6.61,0,0,0,3.69,1Z" style="fill:#212121"/><path d="M693.34,725.68a12.56,12.56,0,0,1-6.76-1.81,11.07,11.07,0,0,1-4.32-5,17.75,17.75,0,0,1,0-14.42,12.33,12.33,0,0,1,4.41-5,12.55,12.55,0,0,1,6.67-1.8,10.85,10.85,0,0,1,5.5,1.17,9.68,9.68,0,0,1,5.67,7.93h-5.13a6,6,0,0,0-1.89-3.25,6.88,6.88,0,0,0-7.93-.18,7.85,7.85,0,0,0-2.62,3.25,12.15,12.15,0,0,0-.9,5,12.39,12.39,0,0,0,.9,5,8.09,8.09,0,0,0,2.53,3.33,6.36,6.36,0,0,0,3.87,1.17,5.86,5.86,0,0,0,4.78-2.16,5.92,5.92,0,0,0,1.17-2.52h5.13a9.52,9.52,0,0,1-1.71,4.68,11,11,0,0,1-3.78,3.24,12.08,12.08,0,0,1-5.59,1.18Zm-1.89-.63h3.42l-.27,1.44a5.41,5.41,0,0,1,2.71,1.26,3.78,3.78,0,0,1,1.17,3,4.41,4.41,0,0,1-2.08,3.88c-1.35,1-3.42,1.44-6,1.44v-2.89a7.15,7.15,0,0,0,2.88-.54,1.72,1.72,0,0,0,1.17-1.71,1.56,1.56,0,0,0-.9-1.62,6.72,6.72,0,0,0-2.79-.63l.72-3.51Z" style="fill:#212121"/><path d="M720.37,725.68A12.4,12.4,0,0,1,713.7,724a12.14,12.14,0,0,1-4.41-4.86,15.58,15.58,0,0,1-1.53-7.3,16.81,16.81,0,0,1,1.53-7.3,12.14,12.14,0,0,1,4.41-4.86,13.86,13.86,0,0,1,13.34,0,12.14,12.14,0,0,1,4.41,4.86,15.61,15.61,0,0,1,1.53,7.3,16.77,16.77,0,0,1-1.53,7.3A12.14,12.14,0,0,1,727,724,12.42,12.42,0,0,1,720.37,725.68ZM715.05,695h-3.51a6.66,6.66,0,0,1,1.62-4.77,5,5,0,0,1,3.88-1.71c1.53,0,1.35.09,1.89.36s1.08.54,1.53.81,1,.54,1.44.81a3.08,3.08,0,0,0,1.62.36,2.22,2.22,0,0,0,1.71-.81,2.78,2.78,0,0,0,.64-1.89l3.51.27a6.21,6.21,0,0,1-1.62,4.59,5.33,5.33,0,0,1-3.88,1.71,4.74,4.74,0,0,1-2.07-.36c-.54-.27-1-.54-1.44-.81a10.71,10.71,0,0,0-1.35-.81,3.08,3.08,0,0,0-1.62-.36,2.25,2.25,0,0,0-1.62.72,2.83,2.83,0,0,0-.64,1.89Zm5.32,26.4a6.58,6.58,0,0,0,4-1.26,7.38,7.38,0,0,0,2.44-3.42,14.48,14.48,0,0,0,0-9.55,8.13,8.13,0,0,0-2.44-3.52,6.11,6.11,0,0,0-4-1.35,6.36,6.36,0,0,0-4.14,1.35,8.13,8.13,0,0,0-2.44,3.52,14.48,14.48,0,0,0,0,9.55,7.38,7.38,0,0,0,2.44,3.42A6.67,6.67,0,0,0,720.37,721.35Z" style="fill:#212121"/><path d="M749.29,725.68a13.17,13.17,0,0,1-6.94-1.72,10.53,10.53,0,0,1-4.41-4.86,17.06,17.06,0,0,1-1.53-7.3,16.81,16.81,0,0,1,1.53-7.3,11.77,11.77,0,0,1,4.41-5,12.24,12.24,0,0,1,6.58-1.8,10.59,10.59,0,0,1,4.41.72,10.13,10.13,0,0,1,3.88,2.34,10.36,10.36,0,0,1,2.7,4.14,18.07,18.07,0,0,1,1,6.22v1.89H739.38v-4h16.4a8.3,8.3,0,0,0-.81-3.7,6.34,6.34,0,0,0-2.35-2.52,6.69,6.69,0,0,0-3.6-.9,7.17,7.17,0,0,0-3.87,1.08,6.8,6.8,0,0,0-2.53,2.79,9.06,9.06,0,0,0-.9,3.79v3.06a10.21,10.21,0,0,0,1,4.6,6.47,6.47,0,0,0,2.71,2.88,8.43,8.43,0,0,0,4.05,1,6.35,6.35,0,0,0,2.7-.45,6.54,6.54,0,0,0,2.17-1.26,4.45,4.45,0,0,0,1.35-2.16l4.95.9a8.75,8.75,0,0,1-2.16,3.87,9.77,9.77,0,0,1-3.87,2.53,14.07,14.07,0,0,1-5.32.9Z" style="fill:#212121"/><path d="M786,704.77l-4.78.81a6.22,6.22,0,0,0-.9-1.71,5.18,5.18,0,0,0-1.71-1.35,6,6,0,0,0-2.7-.54,8.53,8.53,0,0,0-3.79,1,3,3,0,0,0-1.53,2.52,2.62,2.62,0,0,0,1,2.17,8,8,0,0,0,3.25,1.35l4.32,1a11.57,11.57,0,0,1,5.59,2.61,6,6,0,0,1,1.8,4.69,6.12,6.12,0,0,1-1.44,4.32,9.27,9.27,0,0,1-3.88,3,14.13,14.13,0,0,1-5.76,1.09,15.8,15.8,0,0,1-7.48-1.9,8.22,8.22,0,0,1-3.51-5.49l5.13-.81a4.76,4.76,0,0,0,2,3,7.09,7.09,0,0,0,3.88,1,7.25,7.25,0,0,0,4.14-1.08,3.25,3.25,0,0,0,1.53-2.61,3,3,0,0,0-.9-2.16,6.49,6.49,0,0,0-2.88-1.27l-4.59-1a10.47,10.47,0,0,1-5.59-2.7,6.68,6.68,0,0,1-1.8-4.78,5.88,5.88,0,0,1,1.35-4.14,8.94,8.94,0,0,1,3.69-2.79,14.84,14.84,0,0,1,5.41-1,11.37,11.37,0,0,1,6.94,1.89,8.82,8.82,0,0,1,3.33,5Z" style="fill:#212121"/><path d="M306.74,156.45l5.41-1.44c35.13-2.43,73.15-6.67,107.12-15.95,24-6.57,32.71-14.77,53.07-26.39,12-6.85,25.31-12.26,36.94-19.64,23.24-14.6,48.11-43,77-44.69,26.76-1.53,9.28,20.72-1.44,29.28-10,8-34.78,20.9-40.28,31.26-7.75,14.51,14.42,8.83,21.54,7.21,13.87-3.24,30.27-8.29,43.87-12.7,18.38-6,55.5-24.15,73-22.17,9.64,1.08,6.67,11.63,3.06,17.39-8.83,14.42-50.9,36-67.12,43.79l-13.6,6c34-3.6,67.12-13.15,100.63-19.91,8.2-.72,16.76.09,14.24,10.72-1.71,7.3-20.63,16.67-27.39,19.92-23.42,11.17-50,17.83-75.41,23,.36,1.35,1,1.26,2.16,1.17,3.52-.27,8-1.53,11.8-1.89,25.23-2.34,51.45-9.46,75.87-10.72,7.38-.36,30-.45,22.43,12.43-5,8.38-31,15.5-40.54,18.11A582.43,582.43,0,0,1,622.44,215l7.47,1.45c7.93-.72,15.77,1.08,23.61.72C667,216.64,694.6,210,706,213.93a46.24,46.24,0,0,1,4.87,2.62c1.35,2.34-1,7.56-2.79,9.46-6.22,6.57-36,14.59-45.77,16.93-35.14,8.38-79.74,14.15-115.59,14.33-29.65.09-59.11-2-88.84-1.44-22.88.45-46.49,4-69.19-.9-51.63-11.18-67.12-53.61-82.17-98.57Z" style="fill:#24336b"/><path d="M267.37,158.62c-.9,8.55-3.6,26.48-10.72,31.89-2.34,1.8-3.42,2.25-6.49,1.44-7.21-2-20.72-25.5-25-32.61Z" style="fill:#213365"/><path d="M225.11,159.34l2.26,1,9.28,14.95c8.83,13.34,17.93,25.32,25.31,3.16,2.08-6.13,3-12.62,3.79-18.92l1.53-.81C269,142.94,261.87,106.9,277,98c10.09-5.86,14.51,4.69,16.67,12.43,4.5,16,7.57,30,13,46.13l2.25,2.26c17.39,55.58,39.74,95.68,104,97.48,40.55-1.8,81.63-2.07,122.8-.27,41.9.9,83.43-5.14,124.25-13.25l2.34.46c-15.14,39.1-42.89,74.23-80.19,94.14C502.88,379.53,433,368.81,347.73,356.19c-67.3-9.91-114.33-23.06-173.43-57-42.52-24.41-73.7-42.79-91.72-90.81-2.79-7.48-12.79-33.34,2.89-31.54,5.58.64,11.26,7.66,14.41,12.08,8.56,11.8,14.06,23.33,24.06,35,1.08.36,1.53-.36,1.44-2.16-13.51-23-25.14-47.21-35.95-71.8-3.78-8.56-10-41.72,7.3-35.86,8.29,2.79,18.38,18.74,23.24,26.13,11.9,18.2,21.72,37.93,34.06,55.76-2.07-7.11-5.86-13.69-8.38-20.54-8.11-21.62-22.52-68.74-20.18-90.72,1.08-10.36,10.36-11.81,16.85-4,8.29,10.09,17.57,40.37,24.05,54,3,6.31,7.12,15,10.81,20.72,1.09,1.71,2.26,3.79,4.15,4.78-2.16-9.55-6-18.38-8.2-27.93-3-12.8-8.38-41.81-1.71-53.25,5.86-9.82,12.7-3,16.76,3.78,14.41,24,21.62,51.45,36.85,76.59Z" style="fill:#8d7fad"/><path d="M22.4,517.83c0-74.42,43.43-139.29,109.38-139.29s65.68,27.39,65.68,62S170.79,501.43,133.67,512a25.62,25.62,0,0,1-7.3,1.08c-3.6,0-10.54-18.92-10.54-23s1.08-2.53,3.6-3.25c28.11-8.74,47-24.05,47-47s-11.71-33.51-35.4-33.51c-45.95,0-75.5,55-75.5,110.9s33.87,101,88.65,101,74.06-32.07,84.24-58c.72-1.8,1.08-2.88,3.24-2.88s17.12,6.93,17.12,10.18-.36,2.52-.72,3.6c-10.18,32.08-45.59,74.78-108.3,74.78S22.4,593.33,22.4,517.83Z" style="fill:#212121"/><path d="M223.4,556.48c0-49.65,32.08-87.22,78-87.22s42,9.1,53.6,20.1l1.08-.36v-8.74c0-4.42,2.53-6.94,6.58-6.94h17.84c4.41,0,6.94,2.16,6.94,7.3s-4.06,66-4.06,94.87,7.66,35,23.34,35c23,0,40.45-29.91,49.19-50.72.72-1.8,1.44-2.52,2.88-2.52,2.53,0,17.12,6.93,17.12,10.18s-.36,2.52-.72,3.6c-8,24.42-32.79,66.76-74.78,66.76s-43.06-15-43.06-37.57.36-6.57.36-8l-1.45-.36c-8,22.26-29.19,46-63.78,46s-69.29-32.07-69.29-81.35Zm132.71-37.93c-8.74-10.18-27-21.9-46.3-21.9-31.36,0-54.33,24.06-54.33,60.91s18.92,52.88,42.34,52.88c41.54,0,58.38-58,58.38-91.89Z" style="fill:#212121"/><path d="M657.39,567.47a12.79,12.79,0,0,1-.72,3.6c-9.46,28.47-35,66.76-77.66,66.76s-53.25-20.09-53.25-50.36,10.91-55.05,20.09-80.64l-.72-1.08a148.23,148.23,0,0,1-36.48,4.78c-14.6,0-15.32-.72-21.9-1.8v5.13c0,20.45-5.85,49.28-15.67,67.48-.72,1.81-1.45,2.53-2.53,2.53-3.6,0-18.2-7.3-18.2-10.55s1.81-5.13,2.53-7.65c6.57-15.68,10.9-37.57,10.9-55.77s0-5.14-.36-7.66a82.49,82.49,0,0,1-14.6-8.74c-3.24-2.88-4.41-4.77-4.41-6.94,0-4.05,11.26-20.81,16-20.81s15.32,17.12,55.41,17.12,41.18-8,45.23-8,18.2,15.68,18.2,19c0,6.58-22.61,55.77-22.61,89s10.18,27.74,28.11,27.74c25.85,0,44.5-31,52.16-50.36.72-1.8,1.44-2.88,2.89-2.88,3.24,0,17.47,7.3,17.47,10.18Z" style="fill:#212121"/><path d="M631.81,553.23c0-44.5,32.79-83.88,75.5-83.88s48.83,19,48.83,44.87c0,41.54-37.21,63.79-75.86,63.79s-10.54,0-14.24-.36c6.22,21.17,26.67,34.33,49.28,34.33s38.3-11.27,48.84-24.78c1.44-1.8,2.16-2.52,3.6-2.52,2.52,0,15.32,10.54,15.32,13.87s-.72,3.24-1.44,4.42c-12.08,17.83-35,35-68.93,35s-81-32.07-81-84.6Zm97.39-39.37c0-12.79-9.46-20.45-22.25-20.45-25.14,0-46,24.78-46,54.69s0,4.41.36,6.57a104.59,104.59,0,0,0,12.07.73c28.11,0,55.77-14.24,55.77-41.54Z" style="fill:#212121"/></svg>