<svg id="Camada_1" data-name="Camada 1" xmlns="http://www.w3.org/2000/svg" viewBox="0 0 808.9 784.3"><title>ID_Care</title><path d="M306.87,201.13l5.35-1.43c35.2-2.4,73.25-6.68,107.29-15.95,24.06-6.59,32.71-14.88,53.11-26.47,12-6.86,25.31-12.29,37-19.69,23.26-14.71,48.12-43,77.17-44.74,26.73-1.6,9.27,20.77-1.43,29.32-10.07,8-34.84,20.94-40.37,31.28-7.75,14.53,14.44,8.82,21.57,7.22,13.9-3.21,30.3-8.29,43.93-12.66,18.45-5.88,55.61-24.23,73.08-22.27,9.62,1.07,6.68,11.58,3.12,17.46-8.82,14.44-51,36-67.28,43.85l-13.64,6.06c34.13-3.57,67.28-13.19,100.79-20,8.29-.72,16.75.08,14.26,10.69-1.69,7.31-20.68,16.75-27.36,20-23.53,11.14-50.08,17.91-75.57,23.08.36,1.34,1.07,1.25,2.14,1.16,3.56-.27,8.11-1.52,11.85-1.87,25.31-2.41,51.6-9.54,76-10.78,7.39-.36,30-.45,22.45,12.38-4.9,8.38-31,15.51-40.63,18.18a568.5,568.5,0,0,1-66.84,13.81l7.58,1.43c7.93-.71,15.86,1.07,23.7.71,13.55-.53,41.08-7.22,52.67-3.2a39.46,39.46,0,0,1,4.9,2.67c1.43,2.4-1,7.57-2.76,9.44-6.24,6.6-36,14.62-45.81,16.94-35.2,8.37-79.85,14.17-115.76,14.34-29.76.09-59.17-2-88.94-1.42-22.9.44-46.51,4-69.33-.89C337.35,288.55,321.84,246,306.87,201Z" style="fill:#24336b"/><path d="M267.48,203.36c-.89,8.55-3.65,26.46-10.78,31.9-2.41,1.78-3.48,2.23-6.51,1.42-7.22-2-20.76-25.57-25-32.61l42.33-.71Z" style="fill:#213365"/><path d="M225.15,204.07l2.23,1,9.36,15c8.82,13.37,18,25.31,25.39,3.12a98.12,98.12,0,0,0,3.83-19l1.52-.8c1.69-15.78-5.44-52,9.8-60.87,10.07-5.88,14.53,4.72,16.67,12.48,4.45,16,7.57,30,12.92,46.16l2.23,2.23c17.37,55.69,39.74,95.88,104.17,97.58,40.64-1.87,81.81-2.05,123.07-.27,42,.89,83.59-5.17,124.49-13.28l2.41.45c-15.15,39.12-43,74.41-80.29,94.28C503.64,424.36,433.59,413.58,348.22,401c-67.46-10-114.51-23.17-173.69-57.12-42.59-24.42-73.79-42.86-91.79-91-2.76-7.48-12.83-33.41,2.86-31.54C91.21,222,96.82,229,100,233.48c8.56,11.85,14.08,23.43,24.06,35,1.07.36,1.52-.36,1.43-2.14-13.55-23-25.22-47.32-36-71.92-3.75-8.55-10.07-41.79,7.3-35.91,8.29,2.76,18.36,18.8,23.26,26.2,11.94,18.18,21.75,38,34.13,55.88-2.05-7.13-5.88-13.73-8.46-20.59-8.11-21.65-22.64-68.8-20.23-90.9,1.07-10.42,10.34-11.76,16.84-3.92,8.29,10.07,17.65,40.37,24.15,54,3,6.32,7.13,15,10.79,20.76,1.06,1.78,2.22,3.83,4.18,4.81-2.13-9.53-6.06-18.45-8.28-28-2.94-12.83-8.47-41.89-1.7-53.29,5.8-9.89,12.66-2.94,16.76,3.83,14.43,24,21.65,51.51,36.89,76.73Z" style="fill:#8d7fad"/><path d="M21.16,562.67c0-74.95,43.76-140.36,110.24-140.36s66.12,27.54,66.12,62.47-26.82,61.4-64.34,72a26.49,26.49,0,0,1-7.3,1.07c-3.66,0-10.7-19.07-10.7-23.17s1.07-2.59,3.66-3.3c28.33-8.82,47.4-24.24,47.4-47.41s-11.76-33.77-35.64-33.77c-46.34,0-76.11,55.51-76.11,111.75s34.22,101.77,89.3,101.77,74.59-32.35,84.92-58.46c.72-1.88,1.07-2.94,3.3-2.94s17.29,6.95,17.29,10.24-.36,2.59-.71,3.66c-10.25,32.35-46,75.3-109.17,75.3S21.08,638.6,21.08,562.49Z" style="fill:#212121"/><path d="M223.64,601.61c0-50,32.34-87.87,78.68-87.87s42.24,9.18,54,20.23l1.07-.35v-8.83c0-4.36,2.58-6.95,6.59-6.95h18c4.37,0,6.95,2.23,6.95,7.31s-4,66.48-4,95.53S392.69,656,408.46,656c23.17,0,40.82-30.12,49.64-51.06.71-1.87,1.51-2.58,2.94-2.58,2.58,0,17.29,6.95,17.29,10.24s-.36,2.59-.72,3.66c-8.11,24.59-33.06,67.28-75.3,67.28s-43.4-15.06-43.4-37.87.36-6.6.36-8.11l-1.43-.36c-8.11,22.46-29.41,46.34-64.34,46.34s-69.87-32.35-69.87-82ZM357.4,563.38c-8.83-10.25-27.18-22-46.7-22-31.64,0-54.72,24.24-54.72,61.4s19.07,53.29,42.6,53.29c41.89,0,58.82-58.46,58.82-92.59Z" style="fill:#212121"/><path d="M661,612.66a13.17,13.17,0,0,1-.71,3.66C650.76,645,625,683.6,582.06,683.6s-53.65-20.23-53.65-50.71,11.05-55.52,20.23-81.18l-.71-1.07a147.27,147.27,0,0,1-36.72,4.81c-14.7,0-15.42-.71-22-1.87v5.17c0,20.58-5.88,49.64-15.77,68-.72,1.87-1.52,2.59-2.59,2.59-3.65,0-18.36-7.31-18.36-10.7s1.87-5.17,2.59-7.75c6.59-15.77,11.05-37.87,11.05-56.23s0-5.17-.36-7.75a84.7,84.7,0,0,1-14.7-8.83c-3.3-2.94-4.37-4.81-4.37-7,0-4,11.41-20.94,16.13-20.94s15.42,17.29,55.88,17.29,41.52-8.11,45.53-8.11,18.36,15.77,18.36,19.07c0,6.59-22.81,56.23-22.81,89.65S570,656,588.12,656c26.11,0,44.82-31.28,52.57-50.7.72-1.88,1.43-2.94,2.95-2.94,3.29,0,17.64,7.3,17.64,10.24Z" style="fill:#212121"/><path d="M635.26,598.31c0-44.82,33.06-84.57,76.1-84.57s49.28,19.08,49.28,45.19c0,41.88-37.51,64.34-76.46,64.34s-10.69,0-14.34-.36c6.23,21.3,26.82,34.58,49.63,34.58s38.59-11.41,49.28-25c1.52-1.88,2.23-2.59,3.66-2.59,2.58,0,15.41,10.69,15.41,14s-.71,3.3-1.42,4.37c-12.12,18-35.29,35.29-69.42,35.29s-81.63-32.35-81.63-85.28Zm98.11-39.74c0-12.83-9.53-20.59-22.45-20.59-25.4,0-46.34,25-46.34,55.17s0,4.36.35,6.59a109.06,109.06,0,0,0,12.12.71c28.34,0,56.24-14.34,56.24-41.88Z" style="fill:#212121"/></svg>