<svg id="Camada_1" data-name="Camada 1" xmlns="http://www.w3.org/2000/svg" viewBox="0 0 808.9 784.3"><title>ID_Care</title><path d="M581,471.39a108.51,108.51,0,0,1-44.9,45.4c-6.3,3.4-15.2,7.3-22.3,8.8-2.9.6-7.4,2-7.4-2.1,0-2.8,8.4-10.3,10.7-13.2a81.6,81.6,0,0,0,18.2-47.4c-6.7-3.7-14.5-6.1-21.5-9.5-122.2-59.4-126.5-217-5.4-279.6,129.8-67.1,286.8,33.3,261.8,166-15.2,80.5-98.7,139.7-189.1,131.5Zm-4.3-5.9c2.2-1.7,12.4.4,15.8.5,111.6,3.3,195.9-95.5,167.3-192.5-39.3-133.2-238.1-155.6-312-35-50.8,82.9-7.8,176.1,82.9,215.2,2.5,1.1,10.6,3,11.3,5.3.6,1.8.3,8.3,0,10.6-1.1,12.2-6,24.2-12.2,34.9L522,516c21.9-8,37.1-23.1,49.1-41,1.2-1.8,4.6-8.7,5.6-9.4Z" style="fill:#8175b3"/><path d="M509.28,533.09a11.61,11.61,0,0,1-6.5-1.9,9.29,9.29,0,0,1-3.9-7.6c0-4.3,3.5-8.2,9.2-14.1,1.2-1.2,2.4-2.5,2.9-3.1a75.86,75.86,0,0,0,16.5-39.6c-2.3-1.1-4.8-2.1-7.3-3.1-3.3-1.3-6.7-2.7-10-4.3-30.5-14.8-55.6-36.6-72.7-63a156.1,156.1,0,0,1-25.2-82.6c-.9-61,33.6-115.5,92.3-145.8a197.54,197.54,0,0,1,196.5,8.2c28,17.7,50,41.7,63.6,69.4a152.29,152.29,0,0,1,12.8,95.5c-7.7,40.8-32.2,77.4-69.1,103.2A193.59,193.59,0,0,1,597.68,479c-4.1,0-8.1-.1-12.2-.4a115.57,115.57,0,0,1-45.5,44.1c-3.2,1.7-14.4,7.4-24.4,9.6H515a17.73,17.73,0,0,1-5.6.9Zm85.4-366.8c-58.6,0-111.2,27.8-140.4,75.5-21.7,35.5-26.5,75.5-13.4,112.5,14.1,39.9,48,73.9,93,93.3.4.2,1.5.5,2.3.8,5.3,1.8,11.4,3.8,13,8.6,1.1,3.2.6,10.2.3,13.1a83.56,83.56,0,0,1-7.5,26.7c8.2-6.5,15.6-14.9,22.7-25.4.3-.5,1.2-2.1,1.8-3.3,2.6-4.8,3.6-6.6,5.3-7.8,3.8-2.9,9.1-2.5,17.3-1.5a35.23,35.23,0,0,0,3.6.4c50.1,1.5,97.2-18.6,129.3-55.1,32.6-37.2,43.8-84.2,30.5-128.9-17.4-59-69.9-100.3-136.9-107.7a184.8,184.8,0,0,0-21-1.2Z" style="fill:#8d7fad"/><path d="M273.48,567.59a81.62,81.62,0,0,0,16.5,46c2.1,2.8,12.3,13.2,12.5,15,.8,6.9-14.6.5-18.4-1-24.8-9.6-44.5-28.7-56.2-50.4-84.5,7.1-163-43.7-185.5-116.9-23.1-75,19.3-155.8,97.2-187.7,125.6-51.3,264.1,40.8,248.5,164.1-7.4,59-53.2,110.9-114.7,130.8Zm58.6-258.3c-92.1-82-246.9-44.7-282.2,67.1-30.8,97.3,54.2,198.9,166.5,195.2,3.4-.1,13.3-2,15.5-.7,12.3,21.6,29.3,40.9,54.6,50.6,1.2-.6-.2-1.5-.7-2.1-12.2-16.8-20.7-34.6-18.7-55.3,9.2-4.6,19.2-8,28.5-12.7,97.5-49.7,117-170.5,36.5-242.2Z" style="fill:#213365"/><path d="M298.88,638.59c-4.6,0-10.2-1.7-17-4.4l-.7-.3c-23.5-9.1-44.3-27-57.6-49.6-3.7.2-7.5.3-11.2.3a196.33,196.33,0,0,1-104.7-30.2c-35.3-22.4-61-55.2-72.4-92.3-11.6-37.8-7.7-78.5,11.2-114.7s50.8-64.8,90.2-80.9c61.3-25,130.3-18.6,184.5,17.1,54.3,35.9,82.2,93.4,74.5,153.9-3.8,30.2-17.2,59-38.6,83.5a182.2,182.2,0,0,1-75.7,51.1,78.2,78.2,0,0,0,14.8,37.7c.6.7,2.4,2.8,4.1,4.6,7.6,8.4,9.4,10.6,9.7,13.6a9,9,0,0,1-4,8.7,12.68,12.68,0,0,1-7,1.9ZM229,563.69a13.58,13.58,0,0,1,6.7,1.4l1.8,1,1,1.7c8.3,14.7,17.8,26.2,28.5,34.7-6.3-13.3-8.6-25.8-7.4-38.9l.3-3.6,3.4-1.7c4.8-2.4,9.8-4.5,14.6-6.5s9.5-3.9,13.9-6.2c44.9-22.9,74.6-62.6,81.4-108.8,6.7-45.7-10.2-90.4-46.5-122.7h0c-41.2-36.8-99.2-50.8-155.1-37.5s-98.8,51.3-114.69,101.6c-14,44.4-3,93.3,29.4,130.8,32.1,37.1,79.4,57.5,129.69,55.8a38.14,38.14,0,0,0,3.81-.4,91.33,91.33,0,0,1,9.1-.8Z" style="fill:#213365"/><path d="M461.58,438.19c-4.1,1.3-10.7,4.6-15.9,7.5-9.8,5.4-26.7,20.2-36.1,22.6l-17.5,4.5-4.2.8a43.47,43.47,0,0,1-7.2.4c-1.4.2-4.8.1-6,.1s-7.2-.4-10.1-.7a113.71,113.71,0,0,1-30.5-7.6c-2.2-.9-13.5-5.9-14.3-7.2-1.1-2,1-13.1,1.5-16.1,4.7-26.6,20.7-45.2-4.3-68.1-3.3-3.1-7.5-5.5-11.1-8.2,2-20.8-6.1-37.8-26.6-44.2-18.4-5.7-35.4,1.5-52.8,7.3-8.1-2.4-14.8-6.5-23.7-5.1-14,2.2-21.7,10.8-30.8,20.6-16.6-1.2-39.9-6.3-53.9,5.6-12.3,10.5-.5,19.9,4.7,30.2-25.5,11.1-38.3,36.6-17.8,59.9,1.5,1.7,8.6,7,8.8,7.6s0,10.8.4,13.4c5.9,34.7,46.2,86.4,85.1,62.6,1.8-1.1,4-3.9,4.7-4.2.9-.4,6.3.9,8.2.7,13.6-1.2,19.7-12.7,26.8-22.6,9.4.7,19.6,3,29.1,2.6,22.5-1.1,42-12.7,50.2-34,12.5,5.7,24.6,10.6,38.2,12.8,6.8,1.1,18.8,2.3,20.3,2.3,2.7,0,5.3-.3,8.1-.4a66.61,66.61,0,0,0,7-1.1c4.2-.9,7.9-1.5,10-2.1a141.22,141.22,0,0,0,15.1-5.7c17-7.6,30.6-24,49.6-28.3a24.7,24.7,0,0,1,5-1.9,26,26,0,0,1,4.5-.7h0c26.3-6.6,53.9-2.4,80.7-3.4,49.9-1.8,96.4-19.1,124.9-62.2,41.7-63.2,3.6-156.8-75.5-158.3-99.4-1.8-132.6,130.8-45.5,173.1,64.2,31.2,132.7-32,110.6-99.4-18.1-55.3-91.3-69.9-125.7-21.1-36.9,52.2,14.6,128.2,76.1,99.3,52.4-24.5,35.3-110.1-22.9-106.3-53.3,3.5-58.9,80.1-11.2,90.8,43.1,9.6,61.6-50.9,25.5-66.6-22-9.6-44,11-34.8,34,5.6,14.1,27.2,18,32.1,1.4,2.2-7.5-1.7-19.1-10.5-18.4-5.1,4.1,1.6,6.6,3,10,5,12.4-10.3,17.3-16.9,5.9-12.8-22.2,19.7-40.3,34.8-17.8,18.8,28-21.3,62.7-47.4,35.8-30.3-31.2,4.1-83.1,46.4-64.1,50.7,22.7,23.6,109.1-37.7,92.4-54.6-14.8-54-95.8-2.6-114.5,65-23.7,112.8,52.8,76.6,106.7-47.9,71.3-156.6,16.8-136-69.3,18.7-78.3,125.5-87.3,161.3-16.1,29.3,58.3-5.2,119.8-60.8,144.6-46.7,20.9-88.8,8-136.1,14.3m-318.2-79.9-11.5,20A96.82,96.82,0,0,0,142,375c-2.7.7-7.8,4.2-10.7,2.6-1.1-.6-10.7-13.5-11.2-15-1-3.1.9-5.2,3.3-6.9,8-5.9,19.6-6.3,29.1-5.7,1.9.1,13.3,1.5,13.8,2.5Zm120,78.5c-4.1-7.2-12.8-9.3-4-17.3,3.8,4.1,4.8,10.4,5.2,15.8C287.48,430.69,288.28,430.59,286.28,430.89Zm-39.1-74.8c18.7-7.4,33.1,6.6,49.3,13,1.9,2.4-1.5,10.7-2.7,13.7-1,2.7-7.1,15.5-8.9,16.4-1,.5-1.4-.2-2-.8-5.6-5.5-9.7-13.2-15.9-19.3-3.9-3.8-14.8-10.8-16.8-13.6s-2-6.3-3-9.4Zm24.9,58.4-17.9-16.9-1.6-20.5c5,2.4,9.6,7.2,13.4,11.2,2.9,3.1,13.5,15.2,12.3,19-.1.5-5.7,7.1-6.2,7.1Zm-5.5,5.7c-.5,2.8-14.2,13-15.1,12.4-3.5-8.6,1.7-16.6,1.6-25.2,1.7-.9,1.3,0,1.9.6,1.5,1.3,11.6,11.4,11.6,12.3Zm-97.7,20.7c-4.4-9.4-1.7-21.2,0-31.2,1.4-1.6,8.5,3.6,10.6,4.1l-7.6,13.3-3,13.8Zm19.2-23.1,42.3,17.2a4,4,0,0,1,.7,2.1c-.2.4-7.7,4.2-8.8,4.6-14,5.1-31,5.1-45.8,6.8-1.3-10.7,1.9-24.8,11.6-30.7Zm-32.6-25.3c.1-1.3,4.7-13.4,5.4-14,2.8-2.3,10-2.4,13.6-3.1l-11.3,21.7c-1.1.9-8-1.9-7.8-4.6Zm27.7-15.5c2.2-1.6,5.8.1,8.5-.3.8,1.6.1,1.2-.5,1.9-3.8,4-11,7.6-15.2,11.7-.7-1.3.3-2,.8-3,.9-1.8,5.2-9.4,6.4-10.3Zm18.7,3.4c3.2-.8,11.7,6.4,15.1,7.8l-30.6,20-13.9-6.7c7.8-3.5,22.2-19.4,29.4-21.2Zm-11.3-11,12.6-12.2c2-.7,10.6,1.7,12.8,2.7.7.3,1.4-.4,1.4,1.5-5.3.8-12.4,8.6-16.4,9.7-1.2.4-10.2-1.2-10.3-1.7Zm36.7-4.9c2.4-.5,15.6,4.6,16.5,6.6,1.1,2.4,3.8,17.4,3,19.6-.5,1.1-.7,1.1-1.8.9-1.5-.4-4.1-2.3-6.6-2.9-3-.7-7.5-.5-10.1-1.3-1-.3-16.5-10.7-17.8-11.9-.6-.5-1.2-.5-1.2-1.7,5.2-1.8,12.9-8.4,18-9.3Zm18.1,42.5-7-10.2C242.88,397.29,248.78,402.19,245.38,407Zm29.5,51.6c-7.7,5.1-15.9,9.5-25.1,11.2l2.3-25.4c4.1-.1,24.1,10.6,22.8,14.2Zm-37.3-28.9-43.2-17.4c6.1-5,22.6-17.9,30.1-17.5,2.6.1,11.5,10.8,13,13.5,4,7.1,7.3,15.4,0,21.4Zm3.9,10.7c.5,2.6-37.1,29.1-42.9,31-2.7-.9-19-14.2-18-15.9,18.8-2.3,35.5-1.4,52.5-11.2C233.78,443.89,241,437.59,241.48,440.39Zm-53.7,37.2-18.9,7.1c-5-9.2-11.3-18-13.7-28.4l13.3.6,5.3,7.2,14,13.5Zm-35.3-29.1c-.8-6.5-6.2-27.3-2.4-32.5,1-1.4,9.7-6.4,10.9-5.9-2.3,13.3-3.2,26.7,2.8,39.3l-11.3-.8Zm-12.6-65,12-3.1-3.1,8.7c-1,.5-9.6-4.7-9-5.7Zm35.4-29.7,17.3,1.1c.6,1.3-.2,2-.9,3s-9.3,9.7-10,10c-4.1,2.1-11.2-.8-15.8,1.8-1.7-.9,7.7-14.7,9.4-15.8Zm42.5-19-16.9,13.8-19.4-2.6c7.9-11.3,21.4-17.8,34.9-12.7.8.3,1.4-.5,1.4,1.4Zm19.3,16.3c0,.9-8.1,5-9.3,5-3.1.1-12.8-5.5-17.1-5.1-1.3-1.2,12.5-11.4,14.1-12.1C226.58,338.59,235.78,348.89,237.08,351.09Zm61.8,10.3a3.41,3.41,0,0,1-2.8,0c-8.6-2.9-18.9-11.4-27.7-13.4-7.7-1.8-16.2-.2-23.7,1.3L233.08,335c16.1-6.4,32.7-11.8,49.3-4.1,12.3,5.8,16.7,17.4,16.6,30.5Zm-4.4,76.4a53.89,53.89,0,0,0-5.9-30.3c6.3-10.8,12.4-20.9,15.6-33.1,10.9,6.4,20.4,17.1,19.2,30.5-1.3,14.7-11.1,31.4-10.6,47.2l-1.6,1.3-16.6-15.5Zm-4,50.4c2-10.4-.2-20.1-5-29.4.9-1.7,6.6-12.7,8-12.2,1.7,4.7,17.4,12.9,17.7,16.5.6,7.3-14.1,22.1-20.7,25Zm-10.7-35.6c-3.4-4.6-8.9-7.8-13.9-10.5-1.4-.7-9-3.2-8.4-4.6l15.1-11c1,0,12.8,13.2,13.1,14.6.6,2.5-4.4,12-5.9,11.5Zm-37.2,39,5.8-14.1c8-2,14.9-3.9,22.2-7.8,2.7-1.4,5.1-3.6,7.7-5,.7-.4.6-1.2,1.7-.2,4,4.3,6.3,23.7,1,26.8-8.4,5-28.9.7-38.5.4Zm-29.3-16.7c-1.3,0-4.1.2-4.8-1,12.8-7.4,24.5-16.4,35.8-25.9,1.5,1.3-2.6,20.2-3.4,23.3a75.83,75.83,0,0,1-27.5,3.6Zm10.4,11.5c-1-.4-8.2-2.8-7.5-4,3,1.3,21.6-3.3,21.9-2C236.68,491.69,232.08,489.39,223.68,486.39Zm-36,17.6c-2-1.4-14.6-11.5-13.4-13.4l21.7-9.2c8.5,4.1,16.7,8.6,25.5,11.9,2.1.8,8.9,1.5,8.9,4.1,0,4-11.3,14.6-15.5,15.7-7.3,1.9-21.1-4.9-27.1-9.1Zm-54.3-14.1c10.5,6.6,22.1,7,34.1,5.3,8,9.2,17.8,17,29.1,21.8l-.4,1.7-14.3,3.6c-1.9.5-9.3-.4-11.6-.9-16-3.6-29.5-17.5-37-31.5Zm-12.7-37.5,3.1-.4,23,4.1a157,157,0,0,0,15,30.5l-.4,1.7c-8.5.7-17.5.6-24.6-4.6-3.7-2.7-5.9-6.6-9-9.4-1-.9-2.8-.8-3.4-1.8-1.2-1.8-4.5-18.9-3.6-20.1Zm24.3-4.7-21.4-2.5c-2.4-2,14-23.1,17.9-23.7l3.5,26.3Zm-38.3-45.3c4-5.7,17.8-17.2,24.9-15.2,3.9,1.1,10.3,7.9,14.7,9.6l-2.8,14.4c-12.4,6-20.1,18.1-27.1,29.5C103.78,432.09,97.18,416,106.68,402.39Z" style="fill:#77c5d6"/><line x1="151.88" y1="380.39" x2="139.88" y2="383.49" style="fill:none"/></svg>