<svg id="Camada_1" data-name="Camada 1" xmlns="http://www.w3.org/2000/svg" viewBox="0 0 808.9 784.3"><title>ID_Care</title><path d="M591,332.68c27.3-2.7,54.2,12.2,70.3,33.7,17.9,23.9,16.7,39.1-2.2,61.9-25.9,31.3-70.1,39.8-108.3,29.4-9.1-2.5-44-18-50.7-23.5-3.6-2.9-2.3-2.1,0-4.6,2.9-3.2,21.9-17.1,25.5-17.7,5.5-.9,28,12.3,37.4,14.3,23.9,5.2,51.9,1,68.6-18.2,12.4-14.3,3.1-25.3-11.2-34.3-16-10.1-37.6-11.8-55.3-5.9-17.2,5.7-82.7,53.1-94.9,67.6-41.9,49.6-30,135.5,32.4,161.3,16.9,7,27.2,6,43.6,9,20.6,3.8,19.2,30.2,5.3,32.8-46.4,8.9-93.9-25.2-120.7-59.7-5.7,15.6-25.4,49.4-39.3,57.5-10.8,6.3-25.7,1.8-27.2-11.5-.9-8,19.7-28.6,25.4-38.1,29.5-49.2,13.5-90.1,32.8-136.9,18.6-44.9,68-61.7,68.3-115.9,0-14.6-9.8-37-9.5-47.9.2-7.1,10.6-17.7,17.6-17.7,16.4,0,23.6,36.2,24.8,49.1s-2.7,24.2-.9,36.7c25.2-15.5,46.9-42.3,49-72.9.8-11.8-2.6-20.8-2.5-31,.2-22.9,25.4-29,32.6-3.7,8.4,29.7.6,58.7-10.8,86.1Z" style="fill:#77c5d6"/><path d="M285,305.28c1.6-12.9,9.3-36.6,25.1-36.7,27.5,0,10.2,35.3,8.6,48.9-2.5,21.8,5,52.1,17.8,70.1,6.8,9.6,19.5,18.2,27.3,27.7,57.3,69.7,35.5,180.6-50.2,215-17.9,7.2-68.2,21.1-67-9.5.8-19.7,21.4-13.5,34.1-16.2,89.8-19.1,107.7-125.1,41.2-183.3-20.1-17.6-74.5-57.3-100.3-57.4-29.4-.1-73.8,26.4-35.5,52.1,15,10.1,35.7,14.1,53.5,11.3,13.1-2.1,34-14.7,42.1-15.1,4.7-.2,28,15.9,27.1,19.7-42.9,31.5-100.2,43.9-145.6,9.4-64.3-48.8-7.2-104.3,52.4-110.9-10.3-23.7-14.3-46.9-12-72.9,1.2-14.1,8.4-34.3,26.4-26.2,15.4,7,5.2,43.4,7.4,59.5,2.4,17.7,21,42.5,34.5,53.9,2,1.7,17.6,15,15.2,6.4-.4-1.3-2.1-2.1-2.1-2.7,0-13.1-1.6-30.7,0-43Z" style="fill:#58af92"/><path d="M461.91,218.08c14.6-3.9,27.3-14.1,42.5-18.4,16.5-4.7,54.3-14.2,50.7,14.6-2.2,17.6-21.1,13.1-34,16.4-27.3,7.1-47.8,24.1-62,47.9-4.5,7.6-16.5,39.9-24.7,39.9-3.3,0-20.1-19.6-20.4-22.9-.5-5.2,15.1-35,16.5-47.9,1.8-16.2-7.4-60.5-25.3-65.2-9.1-2.4-21.6,20.3-24,27.9-14.1,46.7,11.5,88.7,42.3,121.3,6.4,6.8,39.4,33.8,40.3,38.5,1.2,6.3-16.9,22.4-22.4,22.4-3.9,0-50.1-46.9-56.1-53.9-28.4-33.3-38.1-83.4-80.1-101.5-17.7-7.7-51-3-51.7-25-.7-22.4,23.8-17.7,39.1-15,18.9,3.4,36.7,11.9,52,23.3-.2-25,32.1-76.2,58.6-76.1,27.5,0,59.2,47.5,58.6,73.8Z" style="fill:#cbadcf"/><path d="M370,344.78l22.4,24.7c-6.2,5.5-19.2,23.9-27.2,23.2-3.2-.3-14.2-10.5-15.8-13.1-9.7-16.6,12-24.2,20.6-34.7Z" style="fill:#cbadcf"/></svg>