<svg id="Camada_1" data-name="Camada 1" xmlns="http://www.w3.org/2000/svg" viewBox="0 0 808.9 784.3"><title>ID_Care</title><path d="M288.5,409.4c-66.8-3.2-107.3,75.2-68.9,129.6,33.9,48,102.8,50.1,137.9,2.5,22.8-31,13.3-62.7,24.5-96.8,42.1-127.9,226.9-131.4,275.1-6.1,57.2,149.1-129.2,268.2-239.7,155.2,14.7-16.4,21.2-38.6,30.9-58.1,55.4,88.4,191.3,20.3,149.9-78.1-30.8-73.4-144.2-62.8-160.4,15.5-9.7,46.9.2,70.5-35.4,113.2C292.9,717.9,82.1,583.6,156.8,427.5c13.1-27.4,60.9-73.8,92-76.5,7.1-.6,14.6,21.9,18.9,28.5,2.7,4.1,23.6,27.5,20.8,29.9Z" style="fill:#40468f"/><path d="M546.1,332.6c-22.8-5.5-46.7-2.4-69.3,2.4,39.9-66.7-22-145.8-96.1-124.5-60.4,17.3-80.7,96.3-34.9,140.3,9.4,9.1,45.3,26.4,46.4,40.3.1,1.7-15.3,23.1-17.9,28.3-2.3,4.6-10.5,29.4-12.7,29.3-17.2-29.8-50.1-40.3-71.9-66.8-64.8-78.6-24.9-204.9,73.1-231.5,114.4-31.1,213,68.2,183.3,182Z" style="fill:#77c5d6"/></svg>