<svg id="Camada_1" data-name="Camada 1" xmlns="http://www.w3.org/2000/svg" viewBox="0 0 769.24 185.54"><title>logo-horizontal</title><path d="M118.61,66.39l2.77-.73c18.13-1.23,37.81-3.43,55.37-8.25,12.42-3.43,16.91-7.68,27.44-13.64,6.21-3.51,13.07-6.37,19.11-10.12,12-7.6,24.83-22.22,39.77-23.12,13.8-.81,4.82,10.7-.73,15.11-5.15,4.17-18,10.78-20.83,16.17-4,7.52,7.43,4.58,11.11,3.76,7.19-1.63,15.6-4.25,22.7-6.53,9.48-3,28.67-12.5,37.73-11.44,5,.57,3.43,6,1.64,9C310.11,44,288.39,55.12,280,59.21l-7,3.1c17.56-1.88,34.71-6.78,52-10.29,4.24-.41,8.65,0,7.35,5.55-.9,3.76-10.62,8.66-14.13,10.29-12.09,5.72-25.81,9.23-39,11.93.17.73.49.65,1.15.57,1.79-.16,4.16-.82,6.12-1,13.07-1.23,26.62-4.9,39.2-5.55,3.84-.17,15.52-.25,11.6,6.45-2.53,4.33-16,8-20.91,9.39a289.64,289.64,0,0,1-34.46,7.1l3.92.74c4.08-.33,8.16.57,12.25.41,6.94-.25,21.23-3.76,27.11-1.64a24.82,24.82,0,0,1,2.53,1.39c.74,1.23-.49,3.92-1.47,4.9-3.18,3.35-18.62,7.51-23.6,8.74-18.13,4.33-41.16,7.35-59.7,7.35-15.35,0-30.54-1.06-45.89-.74-11.84.25-24,2-35.77-.49-26.71-5.79-34.71-27.68-42.47-50.87Z" style="fill:#24336b"></path><path d="M98.27,67.54C97.78,72,96.39,81.18,92.72,84a3.16,3.16,0,0,1-3.35.74c-3.76-1-10.7-13.15-12.9-16.82l21.8-.41Z" style="fill:#213365"></path><path d="M76.47,67.86l1.14.49L82.43,76C87,82.89,91.74,89.1,95.5,77.66a51,51,0,0,0,2-9.8l.81-.4c.9-8.17-2.77-26.79,5.07-31.36,5.22-3,7.51,2.45,8.57,6.45,2.29,8.25,3.92,15.51,6.7,23.84l1.14,1.15c9,28.74,20.5,49.49,53.74,50.3,20.9-1,42.22-1.06,63.45-.16,21.64.49,43.12-2.7,64.19-6.86l1.22.24c-7.84,20.18-22.13,38.39-41.4,48.6-40.91,21.72-77,16.25-121,9.71-34.79-5.14-59-11.92-89.59-29.48-22-12.57-38-22.13-47.36-46.95C1.5,89.1-3.65,75.7,4.44,76.68c2.86.33,5.8,4,7.43,6.21,4.41,6.13,7.27,12.09,12.41,18,.58.16.82-.16.74-1.14A340.11,340.11,0,0,1,6.48,62.72c-2-4.41-5.14-21.56,3.76-18.54,4.24,1.47,9.47,9.64,12,13.48,6.13,9.39,11.27,19.6,17.56,28.82-1.06-3.67-3-7-4.33-10.61C31.31,64.68,23.79,40.34,25,29c.57-5.39,5.31-6.12,8.66-2C38,32.18,42.74,47.77,46.09,54.8c1.55,3.26,3.67,7.67,5.55,10.7A6.23,6.23,0,0,0,53.76,68c-1.06-4.9-3.1-9.48-4.24-14.46C48,46.88,45.19,31.85,48.62,26c3-5.06,6.53-1.55,8.66,2,7.43,12.33,11.18,26.54,19,39.61Z" style="fill:#8d7fad"></path><path d="M388.35,167.58h-2.86a4.15,4.15,0,0,0-.65-1.64,4.88,4.88,0,0,0-1.07-1.14,3.93,3.93,0,0,0-1.46-.73,6.07,6.07,0,0,0-1.72-.25,5.36,5.36,0,0,0-2.94.82,5.76,5.76,0,0,0-2,2.37,10.31,10.31,0,0,0,0,7.67,5.29,5.29,0,0,0,2,2.37,4.92,4.92,0,0,0,2.86.82,3.07,3.07,0,0,0,1.71-.25,4.93,4.93,0,0,0,1.47-.73,5.22,5.22,0,0,0,1.15-1.15,5.31,5.31,0,0,0,.65-1.55h2.86a6.77,6.77,0,0,1-.9,2.53,5.57,5.57,0,0,1-1.72,2,7.31,7.31,0,0,1-2.36,1.31,8,8,0,0,1-2.86.49,8,8,0,0,1-7.35-4.41,10.84,10.84,0,0,1-1.06-5.14,11.07,11.07,0,0,1,1.06-5.15,7.34,7.34,0,0,1,3-3.27,8.6,8.6,0,0,1,4.33-1.14,6.88,6.88,0,0,1,2.77.41,9,9,0,0,1,2.37,1.22,6.61,6.61,0,0,1,1.72,2,7.18,7.18,0,0,1,.9,2.7Z" style="fill:#212121"></path><path d="M393.66,161.53v18.62h-2.78V161.53Z" style="fill:#212121"></path><path d="M396.68,180.24v-14h2.77v14Zm.24-15.93,2.13-4.16h2.85l-2.85,4.16h-2.13Z" style="fill:#212121"></path><path d="M405.25,171.91v8.33h-2.77v-14h2.61v2.29h.16a4.12,4.12,0,0,1,1.55-1.8,4.33,4.33,0,0,1,2.62-.65,4.84,4.84,0,0,1,2.53.57,4,4,0,0,1,1.71,1.8,6.24,6.24,0,0,1,.58,2.94v8.9h-2.78v-8.58a3.25,3.25,0,0,0-.82-2.37,2.87,2.87,0,0,0-2.2-.89,3,3,0,0,0-1.72.4,2.41,2.41,0,0,0-1.14,1.23,4.18,4.18,0,0,0-.41,1.88Z" style="fill:#212121"></path><path d="M418.65,164.07a1.71,1.71,0,0,1-1.23-.49,1.62,1.62,0,0,1-.49-1.15,1.59,1.59,0,0,1,.49-1.14,1.67,1.67,0,0,1,1.23-.49,1.64,1.64,0,0,1,1.22.49,1.59,1.59,0,0,1,.49,1.14,1.62,1.62,0,0,1-.49,1.15A1.68,1.68,0,0,1,418.65,164.07Zm-1.39,16.17v-14H420v14Z" style="fill:#212121"></path><path d="M429,180.48a6.11,6.11,0,0,1-5.8-3.43,9.08,9.08,0,0,1-.82-3.76,8,8,0,0,1,.82-3.75,6.25,6.25,0,0,1,2.29-2.53,6.61,6.61,0,0,1,3.43-.9,5.69,5.69,0,0,1,2.85.57,5.88,5.88,0,0,1,2,1.63,5.23,5.23,0,0,1,.89,2.45H432a3.61,3.61,0,0,0-1-1.71,2.93,2.93,0,0,0-2.12-.74,3.28,3.28,0,0,0-2.05.57,4,4,0,0,0-1.3,1.72,6.4,6.4,0,0,0-.49,2.61,6.48,6.48,0,0,0,.49,2.62,4,4,0,0,0,1.3,1.71,3.37,3.37,0,0,0,2.05.57,2,2,0,0,0,1.38-.32,2.74,2.74,0,0,0,1.07-.82,2.45,2.45,0,0,0,.57-1.31h2.69a5.2,5.2,0,0,1-.9,2.45,5,5,0,0,1-2,1.72,6.46,6.46,0,0,1-2.94.57Z" style="fill:#212121"></path><path d="M441.19,180.48a5.89,5.89,0,0,1-2.45-.49,3.81,3.81,0,0,1-1.72-1.47,4.16,4.16,0,0,1-.65-2.29,3.3,3.3,0,0,1,.49-2,4.3,4.3,0,0,1,1.22-1.22,5.18,5.18,0,0,1,1.72-.65,14.58,14.58,0,0,1,2-.33c.81-.08,1.55-.16,2-.25a2.12,2.12,0,0,0,1.14-.32.8.8,0,0,0,.33-.74h0a2.52,2.52,0,0,0-.65-1.88,3.12,3.12,0,0,0-2.05-.65,3.68,3.68,0,0,0-2.2.57,3.13,3.13,0,0,0-1.06,1.31l-2.62-.57a5.21,5.21,0,0,1,1.31-2,6.41,6.41,0,0,1,2-1.15,7.9,7.9,0,0,1,2.45-.32,6,6,0,0,1,1.8.16,7.24,7.24,0,0,1,1.8.73,4,4,0,0,1,1.38,1.47,4.67,4.67,0,0,1,.58,2.54v9.31h-2.7v-1.88h-.08a3.14,3.14,0,0,1-.82,1.06,3.91,3.91,0,0,1-1.39.82,5.18,5.18,0,0,1-2,.32Zm.57-2.12a5,5,0,0,0,2-.41,2.77,2.77,0,0,0,1.22-1.14,3.33,3.33,0,0,0,.41-1.56v-1.79a2,2,0,0,1-.57.24,8.51,8.51,0,0,1-1,.25,4.77,4.77,0,0,0-1.06.16,3.5,3.5,0,0,1-.82.08,4.39,4.39,0,0,0-1.47.33,3.3,3.3,0,0,0-1.06.65,1.77,1.77,0,0,0-.41,1.15,2.15,2.15,0,0,0,.74,1.55,3.42,3.42,0,0,0,1.87.49Z" style="fill:#212121"></path><path d="M459.15,180.24h-3l6.78-18.62h3.26L473,180.24h-3L464.62,165h-.16l-5.31,15.28Zm.49-7.35h9.8v2.36h-9.8Z" style="fill:#212121"></path><path d="M474.75,180.24v-14h2.61v2.29h.17a3.47,3.47,0,0,1,1.47-1.8,4.63,4.63,0,0,1,4.73,0,3.33,3.33,0,0,1,1.39,1.8h.16a4.28,4.28,0,0,1,1.64-1.8,5.34,5.34,0,0,1,2.61-.65,4.68,4.68,0,0,1,3.1,1.22,4.79,4.79,0,0,1,1.23,3.6v9.39h-2.78v-9.15a2.29,2.29,0,0,0-.81-2,2.92,2.92,0,0,0-1.88-.65,2.67,2.67,0,0,0-2.86,2.94v8.9h-2.7V171a2.28,2.28,0,0,0-.73-1.8,2.41,2.41,0,0,0-1.88-.65,2.38,2.38,0,0,0-1.47.41,2.79,2.79,0,0,0-1.06,1.14,3.64,3.64,0,0,0-.41,1.63v8.66H474.5Z" style="fill:#212121"></path><path d="M497,185.46V166.19h2.7v2.29h.24a6.48,6.48,0,0,1,.66-1,3.46,3.46,0,0,1,1.22-1,4.08,4.08,0,0,1,2.12-.41,6.05,6.05,0,0,1,3,.81,5.79,5.79,0,0,1,2.12,2.45,9.36,9.36,0,0,1,.73,3.92,9.56,9.56,0,0,1-.73,3.92,5.67,5.67,0,0,1-2.12,2.45,5.43,5.43,0,0,1-3,.9,4.33,4.33,0,0,1-2.12-.41,4.16,4.16,0,0,1-1.31-1c-.32-.4-.57-.73-.73-1h-.16v7.44H496.8Zm2.7-12.25a8.28,8.28,0,0,0,.41,2.62,4.58,4.58,0,0,0,1.22,1.71,3.53,3.53,0,0,0,4.08,0,3.54,3.54,0,0,0,1.23-1.8,7.93,7.93,0,0,0,.41-2.53,7.47,7.47,0,0,0-.41-2.45,3.94,3.94,0,0,0-1.23-1.71,3.2,3.2,0,0,0-2-.66,3.34,3.34,0,0,0-2,.58,3.28,3.28,0,0,0-1.22,1.71A7.71,7.71,0,0,0,499.66,173.21Z" style="fill:#212121"></path><path d="M515,161.53v18.62h-2.78V161.53Z" style="fill:#212121"></path><path d="M519.42,164.07a1.67,1.67,0,0,1-1.22-.49,1.62,1.62,0,0,1-.49-1.15,1.59,1.59,0,0,1,.49-1.14,1.63,1.63,0,0,1,1.22-.49,1.67,1.67,0,0,1,1.23.49,1.64,1.64,0,0,1,.49,1.14,1.66,1.66,0,0,1-.49,1.15A1.71,1.71,0,0,1,519.42,164.07ZM518,180.24v-14h2.78v14Z" style="fill:#212121"></path><path d="M527.91,180.48a6,6,0,0,1-2.45-.49,3.84,3.84,0,0,1-1.71-1.47,4.16,4.16,0,0,1-.65-2.29,3.3,3.3,0,0,1,.49-2,4.3,4.3,0,0,1,1.22-1.22,5.18,5.18,0,0,1,1.72-.65,14.58,14.58,0,0,1,2-.33c.81-.08,1.55-.16,2-.25a2.12,2.12,0,0,0,1.14-.32.8.8,0,0,0,.33-.74h0a2.48,2.48,0,0,0-.66-1.88,3.09,3.09,0,0,0-2-.65,3.66,3.66,0,0,0-2.2.57,3.13,3.13,0,0,0-1.06,1.31l-2.62-.57a5.21,5.21,0,0,1,1.31-2,6.41,6.41,0,0,1,2-1.15,7.9,7.9,0,0,1,2.45-.32,6,6,0,0,1,1.8.16,7,7,0,0,1,1.79.73,4,4,0,0,1,1.39,1.47,4.67,4.67,0,0,1,.57,2.54v9.31h-2.69v-1.88H532a3.27,3.27,0,0,1-.82,1.06,4,4,0,0,1-1.39.82,5.18,5.18,0,0,1-2,.32Zm.66-2.12a5,5,0,0,0,2-.41,2.77,2.77,0,0,0,1.22-1.14,3.33,3.33,0,0,0,.41-1.56v-1.79a2,2,0,0,1-.57.24,8.51,8.51,0,0,1-1,.25,4.77,4.77,0,0,0-1.06.16,3.5,3.5,0,0,1-.82.08,4.39,4.39,0,0,0-1.47.33,3.3,3.3,0,0,0-1.06.65,1.77,1.77,0,0,0-.41,1.15,2.15,2.15,0,0,0,.74,1.55,3.42,3.42,0,0,0,1.87.49Z" style="fill:#212121"></path><path d="M543.19,180.48a5.51,5.51,0,0,1-3-.9,6.32,6.32,0,0,1-2.12-2.45,9.33,9.33,0,0,1-.73-3.92,9.62,9.62,0,0,1,.73-3.92,5.73,5.73,0,0,1,2.12-2.45,5.44,5.44,0,0,1,3-.81,4.47,4.47,0,0,1,2.12.4,4.08,4.08,0,0,1,1.22,1c.33.41.49.74.66,1h.16v-6.94h2.78v18.62h-2.7v-2.2h-.24a4.14,4.14,0,0,1-.74,1,3.22,3.22,0,0,1-1.3,1,5.31,5.31,0,0,1-2.13.41Zm.57-2.37a3.38,3.38,0,0,0,2-.65,3.31,3.31,0,0,0,1.22-1.72,8.17,8.17,0,0,0,.41-2.61,7.66,7.66,0,0,0-.41-2.53,3.82,3.82,0,0,0-1.22-1.72,3.4,3.4,0,0,0-2-.57,3.2,3.2,0,0,0-2,.66,3.3,3.3,0,0,0-1.23,1.71,7.86,7.86,0,0,0-.41,2.45,8.33,8.33,0,0,0,.41,2.53,4.73,4.73,0,0,0,1.23,1.8A2.79,2.79,0,0,0,543.76,178.11Z" style="fill:#212121"></path><path d="M557.56,180.48a5.89,5.89,0,0,1-2.45-.49,3.81,3.81,0,0,1-1.72-1.47,4.25,4.25,0,0,1-.65-2.29,3.3,3.3,0,0,1,.49-2,4.46,4.46,0,0,1,1.23-1.22,5.2,5.2,0,0,1,1.71-.65,14.85,14.85,0,0,1,2-.33c.82-.08,1.55-.16,2-.25a2.12,2.12,0,0,0,1.14-.32.8.8,0,0,0,.33-.74h0a2.48,2.48,0,0,0-.65-1.88,3.11,3.11,0,0,0-2-.65,3.69,3.69,0,0,0-2.21.57,3.13,3.13,0,0,0-1.06,1.31l-2.61-.57a5.09,5.09,0,0,1,1.3-2,6.41,6.41,0,0,1,2-1.15,7.94,7.94,0,0,1,2.45-.32,6,6,0,0,1,1.8.16,7.09,7.09,0,0,1,1.8.73,4.11,4.11,0,0,1,1.39,1.47,4.76,4.76,0,0,1,.57,2.54v9.31h-2.7v-1.88h-.08a3.14,3.14,0,0,1-.82,1.06,3.87,3.87,0,0,1-1.38.82,5.26,5.26,0,0,1-2.05.32Zm.57-2.12a5,5,0,0,0,2-.41,2.77,2.77,0,0,0,1.22-1.14,3.33,3.33,0,0,0,.41-1.56v-1.79a1.88,1.88,0,0,1-.57.24,8,8,0,0,1-1,.25,5,5,0,0,0-1.06.16,3.46,3.46,0,0,1-.82.08,4.39,4.39,0,0,0-1.47.33,3.41,3.41,0,0,0-1.06.65,1.83,1.83,0,0,0-.41,1.15,2.15,2.15,0,0,0,.74,1.55,3.43,3.43,0,0,0,1.88.49Z" style="fill:#212121"></path><path d="M573.89,180.24V161.62h6.7a7.58,7.58,0,0,1,3.59.73,4.67,4.67,0,0,1,2.12,2,6.55,6.55,0,0,1,0,6.05,4.9,4.9,0,0,1-2.2,2,8.07,8.07,0,0,1-3.59.73h-5.07v-2.45h4.82a5.55,5.55,0,0,0,2.21-.41,2.89,2.89,0,0,0,1.3-1.14,4.13,4.13,0,0,0,0-3.59,3.17,3.17,0,0,0-1.3-1.23,4.7,4.7,0,0,0-2.29-.41h-3.59v16.26h-2.7Zm9.31-8.42,4.66,8.42h-3.27L580,171.82h3.18Z" style="fill:#212121"></path><path d="M595.61,180.48a7.13,7.13,0,0,1-3.59-.9,5.34,5.34,0,0,1-2.29-2.53,9.37,9.37,0,0,1-.81-3.76,8,8,0,0,1,.81-3.75A6.32,6.32,0,0,1,592,167a5.93,5.93,0,0,1,3.43-.9,5.13,5.13,0,0,1,2.29.41,5.86,5.86,0,0,1,2,1.22,5.17,5.17,0,0,1,1.39,2.21,9.61,9.61,0,0,1,.49,3.26v1H590.47v-2H599a4.21,4.21,0,0,0-.41-1.88,3.64,3.64,0,0,0-1.22-1.3,3.35,3.35,0,0,0-1.88-.5,3.5,3.5,0,0,0-2,.58,4.38,4.38,0,0,0-1.31,1.47,3.93,3.93,0,0,0-.49,2v1.63a5.45,5.45,0,0,0,.49,2.37,3.53,3.53,0,0,0,1.39,1.47,4.37,4.37,0,0,0,2.12.49c.82,0,1,0,1.39-.25s.82-.41,1.15-.65a3.15,3.15,0,0,0,.73-1.06l2.61.49a4.75,4.75,0,0,1-1.14,2,5.71,5.71,0,0,1-2,1.3,7.3,7.3,0,0,1-2.78.49Z" style="fill:#212121"></path><path d="M614.64,169.62l-2.45.41a1.86,1.86,0,0,0-.49-.9,4.18,4.18,0,0,0-.9-.74,3.52,3.52,0,0,0-1.38-.24,4.28,4.28,0,0,0-2,.49,1.68,1.68,0,0,0-.82,1.31,1.47,1.47,0,0,0,.49,1.14,6,6,0,0,0,1.71.73l2.21.49A6.21,6.21,0,0,1,614,173.7a3.22,3.22,0,0,1,1,2.45,3.16,3.16,0,0,1-.74,2.21,5.05,5.05,0,0,1-2,1.55,7.11,7.11,0,0,1-3,.57,8,8,0,0,1-3.84-1,4,4,0,0,1-1.79-2.86l2.61-.41a2.57,2.57,0,0,0,1,1.56,3.64,3.64,0,0,0,2,.49,3.26,3.26,0,0,0,2.12-.58,1.57,1.57,0,0,0,.82-1.38,1.13,1.13,0,0,0-.49-1.07,4.23,4.23,0,0,0-1.47-.65l-2.37-.49a6.21,6.21,0,0,1-2.94-1.39,3.33,3.33,0,0,1-1-2.45,3.25,3.25,0,0,1,.74-2.2,4.34,4.34,0,0,1,2-1.47,7.65,7.65,0,0,1,2.86-.49,5.82,5.82,0,0,1,3.59,1,4.32,4.32,0,0,1,1.71,2.61Z" style="fill:#212121"></path><path d="M627.87,169.62l-2.45.41a1.86,1.86,0,0,0-.49-.9,4.18,4.18,0,0,0-.9-.74,3.52,3.52,0,0,0-1.38-.24,4.28,4.28,0,0,0-2,.49,1.68,1.68,0,0,0-.82,1.31,1.47,1.47,0,0,0,.49,1.14,6,6,0,0,0,1.71.73l2.21.49a6.21,6.21,0,0,1,2.94,1.39,3.22,3.22,0,0,1,1,2.45,3.16,3.16,0,0,1-.74,2.21,5.05,5.05,0,0,1-2,1.55,7.11,7.11,0,0,1-3,.57,8,8,0,0,1-3.84-1,4,4,0,0,1-1.79-2.86l2.61-.41a2.57,2.57,0,0,0,1,1.56,3.64,3.64,0,0,0,2,.49,3.26,3.26,0,0,0,2.12-.58,1.57,1.57,0,0,0,.82-1.38,1.13,1.13,0,0,0-.49-1.07,4.23,4.23,0,0,0-1.47-.65l-2.37-.49a6.21,6.21,0,0,1-2.94-1.39,3.33,3.33,0,0,1-1-2.45,3.25,3.25,0,0,1,.74-2.2,4.34,4.34,0,0,1,2-1.47,7.65,7.65,0,0,1,2.86-.49,5.82,5.82,0,0,1,3.59,1A4.32,4.32,0,0,1,628,169.7Z" style="fill:#212121"></path><path d="M631.87,164.07a1.68,1.68,0,0,1-1.22-.49,1.62,1.62,0,0,1-.49-1.15,1.59,1.59,0,0,1,.49-1.14,1.64,1.64,0,0,1,1.22-.49,1.67,1.67,0,0,1,1.23.49,1.59,1.59,0,0,1,.49,1.14,1.62,1.62,0,0,1-.49,1.15A1.71,1.71,0,0,1,631.87,164.07Zm-1.38,16.17v-14h2.77v14Z" style="fill:#212121"></path><path d="M642.16,185.71a9.71,9.71,0,0,1-2.85-.41,5.66,5.66,0,0,1-2-1.14,5.12,5.12,0,0,1-1.15-1.56l2.37-1a5.3,5.3,0,0,0,.65.82,2.4,2.4,0,0,0,1.15.74,4.16,4.16,0,0,0,1.88.32,5.08,5.08,0,0,0,2.61-.73,2.82,2.82,0,0,0,1-2.37v-2.78h-.16a3.77,3.77,0,0,1-.74,1,5.64,5.64,0,0,1-1.31,1,5.06,5.06,0,0,1-2.12.41,5.93,5.93,0,0,1-3-.82,5.21,5.21,0,0,1-2.12-2.28,8.57,8.57,0,0,1-.74-3.76,9.2,9.2,0,0,1,.74-3.84,5.66,5.66,0,0,1,2.12-2.45,5.43,5.43,0,0,1,3-.81,4.47,4.47,0,0,1,2.12.4,4.14,4.14,0,0,1,1.23,1c.33.41.57.74.73,1h.17v-2.28h2.69V180.4a4.68,4.68,0,0,1-.81,2.94,5.49,5.49,0,0,1-2.29,1.71,8.29,8.29,0,0,1-3.27.58Zm0-8a3.37,3.37,0,0,0,2.05-.57,2.88,2.88,0,0,0,1.22-1.55,7.53,7.53,0,0,0,0-4.9,3.79,3.79,0,0,0-1.22-1.71,3.68,3.68,0,0,0-4.09.08,3.32,3.32,0,0,0-1.22,1.71,7.53,7.53,0,0,0,0,4.9,3.57,3.57,0,0,0,1.22,1.64,3.4,3.4,0,0,0,2,.57Z" style="fill:#212121"></path><path d="M654.33,171.91v8.33h-2.77v-14h2.61v2.29h.16a4.12,4.12,0,0,1,1.55-1.8,4.33,4.33,0,0,1,2.62-.65,4.84,4.84,0,0,1,2.53.57,4,4,0,0,1,1.71,1.8,6.24,6.24,0,0,1,.58,2.94v8.9h-2.78v-8.58a3.25,3.25,0,0,0-.82-2.37,2.87,2.87,0,0,0-2.2-.89,3,3,0,0,0-1.72.4,2.41,2.41,0,0,0-1.14,1.23,4.18,4.18,0,0,0-.41,1.88Z" style="fill:#212121"></path><path d="M667.72,164.07a1.68,1.68,0,0,1-1.22-.49,1.62,1.62,0,0,1-.49-1.15,1.59,1.59,0,0,1,.49-1.14,1.78,1.78,0,0,1,2.45,0,1.59,1.59,0,0,1,.49,1.14,1.62,1.62,0,0,1-.49,1.15A1.69,1.69,0,0,1,667.72,164.07Zm-1.38,16.17v-14h2.77v14Z" style="fill:#212121"></path><path d="M678.83,166.19v2.2h-8v-2.2ZM673,180.24v-15.6a3.77,3.77,0,0,1,.57-2.21,4,4,0,0,1,1.56-1.3,4.29,4.29,0,0,1,2-.41,3.1,3.1,0,0,1,1.39.16,5.31,5.31,0,0,1,.89.25l-.65,2.2a.61.61,0,0,1-.49-.16h-.73a1.66,1.66,0,0,0-1.39.49,2.27,2.27,0,0,0-.41,1.39v15.27H673Z" style="fill:#212121"></path><path d="M682.42,164.07a1.68,1.68,0,0,1-1.22-.49,1.62,1.62,0,0,1-.49-1.15,1.59,1.59,0,0,1,.49-1.14,1.64,1.64,0,0,1,1.22-.49,1.67,1.67,0,0,1,1.23.49,1.59,1.59,0,0,1,.49,1.14,1.62,1.62,0,0,1-.49,1.15A1.71,1.71,0,0,1,682.42,164.07ZM681,180.24v-14h2.77v14Z" style="fill:#212121"></path><path d="M692.71,180.48a6.08,6.08,0,0,1-5.79-3.43,9.08,9.08,0,0,1-.82-3.76,7.84,7.84,0,0,1,.82-3.75A6.23,6.23,0,0,1,689.2,167a6.64,6.64,0,0,1,3.43-.9,5.73,5.73,0,0,1,2.86.57,5.84,5.84,0,0,1,2,1.63,5.24,5.24,0,0,1,.9,2.45h-2.69a3.69,3.69,0,0,0-1-1.71,2.93,2.93,0,0,0-2.13-.74,3.23,3.23,0,0,0-2,.57,4.05,4.05,0,0,0-1.31,1.72,6.57,6.57,0,0,0-.49,2.61,6.65,6.65,0,0,0,.49,2.62,4.08,4.08,0,0,0,1.31,1.71,3.34,3.34,0,0,0,2,.57,2.08,2.08,0,0,0,1.39-.32,2.64,2.64,0,0,0,1.06-.82,2.37,2.37,0,0,0,.57-1.31h2.7a5.2,5.2,0,0,1-.9,2.45,5,5,0,0,1-2,1.72,6.52,6.52,0,0,1-2.94.57Z" style="fill:#212121"></path><path d="M705,180.48a6,6,0,0,1-2.45-.49,3.84,3.84,0,0,1-1.71-1.47,4.16,4.16,0,0,1-.65-2.29,3.3,3.3,0,0,1,.49-2,4.3,4.3,0,0,1,1.22-1.22,5.18,5.18,0,0,1,1.72-.65,14.58,14.58,0,0,1,2-.33c.81-.08,1.55-.16,2-.25a2.12,2.12,0,0,0,1.14-.32.8.8,0,0,0,.33-.74h0a2.48,2.48,0,0,0-.66-1.88,3.09,3.09,0,0,0-2-.65,3.66,3.66,0,0,0-2.2.57,3.13,3.13,0,0,0-1.06,1.31l-2.62-.57a5.21,5.21,0,0,1,1.31-2,6.41,6.41,0,0,1,2-1.15,7.9,7.9,0,0,1,2.45-.32,6,6,0,0,1,1.8.16,7,7,0,0,1,1.79.73,4,4,0,0,1,1.39,1.47,4.67,4.67,0,0,1,.57,2.54v9.31h-2.69v-1.88h-.08a3.27,3.27,0,0,1-.82,1.06,4,4,0,0,1-1.39.82,5.18,5.18,0,0,1-2,.32Zm.58-2.12a5.07,5.07,0,0,0,2-.41,2.77,2.77,0,0,0,1.22-1.14,3.33,3.33,0,0,0,.41-1.56v-1.79a2,2,0,0,1-.57.24,8.51,8.51,0,0,1-1,.25,4.77,4.77,0,0,0-1.06.16,3.5,3.5,0,0,1-.82.08,4.39,4.39,0,0,0-1.47.33,3.3,3.3,0,0,0-1.06.65,1.77,1.77,0,0,0-.41,1.15,2.13,2.13,0,0,0,.73,1.55,3.46,3.46,0,0,0,1.88.49Z" style="fill:#212121"></path><path d="M720.81,180.48a6.11,6.11,0,0,1-5.8-3.43,9.08,9.08,0,0,1-.82-3.76,8,8,0,0,1,.82-3.75A6.25,6.25,0,0,1,717.3,167a6.61,6.61,0,0,1,3.43-.9,5.69,5.69,0,0,1,2.85.57,5.88,5.88,0,0,1,2,1.63,5.23,5.23,0,0,1,.89,2.45h-2.69a3.61,3.61,0,0,0-1-1.71,2.93,2.93,0,0,0-2.12-.74,3.28,3.28,0,0,0-2.05.57,4,4,0,0,0-1.3,1.72,6.4,6.4,0,0,0-.49,2.61,6.48,6.48,0,0,0,.49,2.62,4,4,0,0,0,1.3,1.71,3.37,3.37,0,0,0,2.05.57,2,2,0,0,0,1.38-.32,2.74,2.74,0,0,0,1.07-.82,2.45,2.45,0,0,0,.57-1.31h2.69a5.2,5.2,0,0,1-.9,2.45,5,5,0,0,1-2,1.72,6.46,6.46,0,0,1-2.94.57Zm-1-.33h1.79l-.16.74a2.8,2.8,0,0,1,1.39.65,1.82,1.82,0,0,1,.57,1.55,2.22,2.22,0,0,1-1.06,2,5.64,5.64,0,0,1-3.1.74v-1.55a3.83,3.83,0,0,0,1.47-.25.89.89,0,0,0,.57-.9.82.82,0,0,0-.49-.81,4.72,4.72,0,0,0-1.47-.33l.41-1.8Z" style="fill:#212121"></path><path d="M734.85,180.48a6.74,6.74,0,0,1-3.43-.9,6.23,6.23,0,0,1-2.28-2.53,8,8,0,0,1-.82-3.76,8.53,8.53,0,0,1,.82-3.83,5.78,5.78,0,0,1,2.28-2.54,7.05,7.05,0,0,1,6.86,0,6.28,6.28,0,0,1,2.29,2.54,8,8,0,0,1,.82,3.83,7.76,7.76,0,0,1-.82,3.76,6.25,6.25,0,0,1-2.29,2.53A6.71,6.71,0,0,1,734.85,180.48Zm-2.77-16H730.2A3.28,3.28,0,0,1,731,162a2.77,2.77,0,0,1,2-.89c.81,0,.73,0,1,.16s.57.24.81.41a3.9,3.9,0,0,0,.74.41,1.36,1.36,0,0,0,.82.16,1.27,1.27,0,0,0,1.22-1.39h1.8a3.39,3.39,0,0,1-.82,2.53,2.78,2.78,0,0,1-2,.9,2.1,2.1,0,0,1-1.06-.16,7.92,7.92,0,0,1-.74-.41,1.8,1.8,0,0,0-.65-.41,1.38,1.38,0,0,0-.82-.16,1,1,0,0,0-.81.41,1.27,1.27,0,0,0-.33,1Zm2.77,13.72a3.64,3.64,0,0,0,2.13-.65,3.89,3.89,0,0,0,1.22-1.8,7.53,7.53,0,0,0,.41-2.45,7.62,7.62,0,0,0-.41-2.45,3.54,3.54,0,0,0-1.22-1.79,3.16,3.16,0,0,0-2.13-.66,3.63,3.63,0,0,0-2.12.66,3.91,3.91,0,0,0-1.22,1.79,7.62,7.62,0,0,0-.41,2.45,7.53,7.53,0,0,0,.41,2.45,3.89,3.89,0,0,0,1.22,1.8A3.14,3.14,0,0,0,734.85,178.19Z" style="fill:#212121"></path><path d="M750,180.48a7.1,7.1,0,0,1-3.59-.9,5.34,5.34,0,0,1-2.29-2.53,9.37,9.37,0,0,1-.81-3.76,8,8,0,0,1,.81-3.75,6.25,6.25,0,0,1,2.29-2.53,5.93,5.93,0,0,1,3.43-.9,5.13,5.13,0,0,1,2.29.41,6,6,0,0,1,2,1.22,5.17,5.17,0,0,1,1.39,2.21,9.61,9.61,0,0,1,.49,3.26v1H744.82v-2h8.49a4.21,4.21,0,0,0-.41-1.88,3.64,3.64,0,0,0-1.22-1.3,3.38,3.38,0,0,0-1.88-.5,3.48,3.48,0,0,0-2,.58,4.38,4.38,0,0,0-1.31,1.47,3.83,3.83,0,0,0-.49,2v1.63a5.31,5.31,0,0,0,.49,2.37,3.53,3.53,0,0,0,1.39,1.47,4.37,4.37,0,0,0,2.12.49c.82,0,1,0,1.39-.25a12.86,12.86,0,0,0,1.14-.65,3,3,0,0,0,.74-1.06l2.61.49a4.75,4.75,0,0,1-1.14,2,5.8,5.8,0,0,1-2,1.3,7.3,7.3,0,0,1-2.78.49Z" style="fill:#212121"></path><path d="M768.91,169.62l-2.45.41a1.94,1.94,0,0,0-.49-.9,4.44,4.44,0,0,0-.9-.74,3.6,3.6,0,0,0-1.39-.24,4.31,4.31,0,0,0-2,.49,1.67,1.67,0,0,0-.81,1.31,1.47,1.47,0,0,0,.49,1.14,5.71,5.71,0,0,0,1.71.73l2.21.49a6.31,6.31,0,0,1,2.94,1.39,3.22,3.22,0,0,1,1,2.45,3.16,3.16,0,0,1-.74,2.21,5.05,5.05,0,0,1-2,1.55,7.11,7.11,0,0,1-3,.57,7.92,7.92,0,0,1-3.84-1,4,4,0,0,1-1.8-2.86l2.62-.41a2.57,2.57,0,0,0,1,1.56,3.64,3.64,0,0,0,2,.49,3.26,3.26,0,0,0,2.12-.58,1.59,1.59,0,0,0,.82-1.38,1.15,1.15,0,0,0-.49-1.07,4.23,4.23,0,0,0-1.47-.65l-2.37-.49a6.12,6.12,0,0,1-2.94-1.39,3.33,3.33,0,0,1-1-2.45,3.25,3.25,0,0,1,.73-2.2,4.4,4.4,0,0,1,2-1.47,7.72,7.72,0,0,1,2.86-.49,5.85,5.85,0,0,1,3.6,1A4.37,4.37,0,0,1,769,169.7Z" style="fill:#212121"></path><path d="M372.18,72.44C372.18,33.81,394.72,0,429,0s34.13,14.21,34.13,32.26S449.35,63.94,430,69.42a12.31,12.31,0,0,1-3.76.57c-1.88,0-5.47-9.88-5.47-11.93s.57-1.3,1.88-1.71c14.61-4.57,24.41-12.5,24.41-24.42s-6-17.48-18.37-17.48c-23.85,0-39.2,28.59-39.2,57.66s17.64,52.51,46.06,52.51S474,108,479.32,94.49c.41-1,.57-1.55,1.72-1.55s8.9,3.59,8.9,5.3-.16,1.31-.41,1.88C484.22,116.78,465.85,139,433.26,139s-61-27.27-61-66.55Z" style="fill:#212121"></path><path d="M476.63,92.53c0-25.81,16.66-45.33,40.59-45.33s21.8,4.74,27.84,10.46l.58-.17V52.92c0-2.29,1.3-3.59,3.43-3.59h9.3c2.29,0,3.6,1.14,3.6,3.75s-2.13,34.3-2.13,49.25,4,18.21,12.17,18.21c11.93,0,21.07-15.52,25.56-26.38.41-1,.74-1.31,1.56-1.31,1.3,0,8.9,3.6,8.9,5.31s-.17,1.31-.41,1.88c-4.17,12.74-17.07,34.71-38.87,34.71s-22.38-7.76-22.38-19.52.16-3.43.16-4.16l-.73-.17c-4.17,11.6-15.19,23.85-33.16,23.85s-36-16.66-36-42.3Zm68.92-19.68c-4.57-5.31-14-11.36-24.09-11.36-16.33,0-28.25,12.5-28.25,31.69s9.88,27.52,22,27.52c21.65,0,30.3-30.13,30.3-47.77Z" style="fill:#212121"></path><path d="M702.11,98.24a5.26,5.26,0,0,1-.41,1.88c-4.9,14.78-18.21,34.71-40.34,34.71s-27.69-10.45-27.69-26.13,5.72-28.59,10.45-41.9l-.4-.57a76.61,76.61,0,0,1-19,2.45c-7.6,0-7.92-.41-11.35-1v2.61c0,10.62-3,25.57-8.17,35-.41,1-.73,1.31-1.31,1.31-1.87,0-9.47-3.76-9.47-5.48s1-2.61,1.31-4a81.08,81.08,0,0,0,5.71-29c0-9.47,0-2.61-.16-4a40.86,40.86,0,0,1-7.59-4.57c-1.72-1.56-2.29-2.45-2.29-3.6,0-2.12,5.88-10.78,8.33-10.78s7.92,8.9,28.83,8.9S650,50,652.13,50s9.47,8.17,9.47,9.88c0,3.43-11.76,29-11.76,46.22s5.31,14.38,14.62,14.38c13.47,0,23.11-16.09,27.11-26.14.41-1,.74-1.55,1.55-1.55,1.72,0,9.07,3.76,9.07,5.31Z" style="fill:#212121"></path><path d="M688.88,90.81c0-23.11,17.06-43.61,39.2-43.61s25.39,9.88,25.39,23.28c0,21.64-19.35,33.15-39.44,33.15s-5.47,0-7.43-.16c3.18,11,13.8,17.8,25.56,17.8s19.93-5.88,25.4-12.9c.73-1,1.14-1.31,1.88-1.31,1.3,0,7.92,5.47,7.92,7.19a2.77,2.77,0,0,1-.74,2.29c-6.29,9.31-18.21,18.21-35.85,18.21s-42.06-16.66-42.06-43.94ZM739.51,70.4c0-6.62-4.9-10.62-11.6-10.62-13.06,0-23.84,12.9-23.84,28.42s0,2.29.16,3.43a61.65,61.65,0,0,0,6.29.41C725.14,92,739.51,84.61,739.51,70.4Z" style="fill:#212121"></path></svg>